<svg width="45" height="45" viewBox="0 0 45 45" fill="none" xmlns="http://www.w3.org/2000/svg">
<path fill-rule="evenodd" clip-rule="evenodd" d="M26.0001 14H28.7624L25.6219 19.4395C24.8005 19.1547 23.9183 19 23 19C18.5817 19 15 22.5817 15 27C15 29.4162 16.0711 31.5822 17.7644 33.049L14.906 38H7C5.89539 38 5 37.1046 5 36L5.00012 14V10C5.00012 8.89545 5.89551 8 7.00012 8H18.0001C20.6261 8 22.858 9.68695 23.6714 12.0362C24.0327 13.08 24.8955 14 26.0001 14ZM22.9999 21.0006C23.5528 21.0006 24.0882 21.0754 24.5966 21.2154L18.7889 31.2747C17.6845 30.1865 16.9999 28.6735 16.9999 27.0006C16.9999 23.6869 19.6862 21.0006 22.9999 21.0006ZM26.4146 22.0664L20.4337 32.4257C21.2117 32.7944 22.0817 33.0006 22.9999 33.0006C26.3136 33.0006 28.9999 30.3143 28.9999 27.0006C28.9999 24.9556 27.9768 23.1496 26.4146 22.0664ZM23 35C21.7176 35 20.5056 34.6983 19.4313 34.1619L17.2154 38H37C38.1046 38 39 37.1046 39 36L39.0001 16C39.0001 14.8954 38.1047 14 37.0001 14H31.0718L27.4176 20.3293C29.5766 21.7619 31 24.2147 31 27C31 31.4183 27.4183 35 23 35ZM12.8621 10.9786L12.5 10L12.1379 10.9786C11.4249 12.9055 9.90554 14.4249 7.97856 15.1379L7 15.5L7.97856 15.8621C9.90554 16.5751 11.4249 18.0945 12.1379 20.0214L12.5 21L12.8621 20.0214C13.5751 18.0945 15.0945 16.5751 17.0214 15.8621L18 15.5L17.0214 15.1379C15.0945 14.4249 13.5751 12.9055 12.8621 10.9786Z" fill="url(#paint0_linear)"/>
<path fill-rule="evenodd" clip-rule="evenodd" d="M26.0001 14H28.7624L25.6219 19.4395C24.8005 19.1547 23.9183 19 23 19C18.5817 19 15 22.5817 15 27C15 29.4162 16.0711 31.5822 17.7644 33.049L14.906 38H7C5.89539 38 5 37.1046 5 36L5.00012 14V10C5.00012 8.89545 5.89551 8 7.00012 8H18.0001C20.6261 8 22.858 9.68695 23.6714 12.0362C24.0327 13.08 24.8955 14 26.0001 14ZM22.9999 21.0006C23.5528 21.0006 24.0882 21.0754 24.5966 21.2154L18.7889 31.2747C17.6845 30.1865 16.9999 28.6735 16.9999 27.0006C16.9999 23.6869 19.6862 21.0006 22.9999 21.0006ZM26.4146 22.0664L20.4337 32.4257C21.2117 32.7944 22.0817 33.0006 22.9999 33.0006C26.3136 33.0006 28.9999 30.3143 28.9999 27.0006C28.9999 24.9556 27.9768 23.1496 26.4146 22.0664ZM23 35C21.7176 35 20.5056 34.6983 19.4313 34.1619L17.2154 38H37C38.1046 38 39 37.1046 39 36L39.0001 16C39.0001 14.8954 38.1047 14 37.0001 14H31.0718L27.4176 20.3293C29.5766 21.7619 31 24.2147 31 27C31 31.4183 27.4183 35 23 35ZM12.8621 10.9786L12.5 10L12.1379 10.9786C11.4249 12.9055 9.90554 14.4249 7.97856 15.1379L7 15.5L7.97856 15.8621C9.90554 16.5751 11.4249 18.0945 12.1379 20.0214L12.5 21L12.8621 20.0214C13.5751 18.0945 15.0945 16.5751 17.0214 15.8621L18 15.5L17.0214 15.1379C15.0945 14.4249 13.5751 12.9055 12.8621 10.9786Z" fill="url(#paint1_radial)"/>
<defs>
<linearGradient id="paint0_linear" x1="23.4446" y1="18.8333" x2="24.6534" y2="39.1782" gradientUnits="userSpaceOnUse">
<stop stop-color="#BFBFCF"/>
<stop offset="1" stop-color="#CDD0DF" stop-opacity="0"/>
</linearGradient>
<radialGradient id="paint1_radial" cx="0" cy="0" r="1" gradientUnits="userSpaceOnUse" gradientTransform="translate(22.5557 26.3333) rotate(90) scale(9.33333 12.4455)">
<stop stop-color="#C5C7D7"/>
<stop offset="0.999966" stop-color="#CDD0DF" stop-opacity="0"/>
</radialGradient>
</defs>
</svg>
