<svg width="45" height="45" viewBox="0 0 45 45" fill="none" xmlns="http://www.w3.org/2000/svg">
<path fill-rule="evenodd" clip-rule="evenodd" d="M6 45H39.75V36.8598C38.2843 36.1375 36.6362 35.479 35.0678 34.8523C34.148 34.4847 33.2555 34.1281 32.4432 33.776C28.8287 32.209 28.7885 31.1786 28.7407 29.9537C28.7335 29.7707 28.7262 29.5833 28.7068 29.3892C28.6813 29.1329 28.6667 28.8559 28.6594 28.5739C30.3391 26.8651 31.4729 24.5639 32.092 22.2521C33.0442 22.0632 33.5991 21.0452 33.8114 20.1043C34.0256 19.7233 34.4707 18.7846 34.3686 17.7195C34.2657 16.6479 33.8989 16.0275 33.4415 15.6808C33.508 15.1888 33.5458 14.7491 33.5458 14.3717C33.5458 14.1085 33.5536 13.7914 33.5623 13.4317C33.6167 11.2047 33.7109 7.34342 32.2555 4.52694C30.5651 1.25553 25.6653 0.146998 23.4268 0.00165963C23.3602 0.000550862 23.2939 0 23.2278 0C20.1482 0 17.4945 1.19412 15.5935 2.87163C13.3296 3.97451 12.4635 5.13863 12.4635 5.13863H13.4312L11.8903 6.95855L12.9455 6.80678C11.9509 9.9725 11.8903 14.5904 11.8903 14.9925C11.8903 15.0508 11.9086 15.2145 11.9414 15.457C11.3158 15.7267 10.7613 16.3604 10.6315 17.719C10.5294 18.7842 10.9746 19.7233 11.1887 20.1038C11.4042 21.0613 11.9751 22.098 12.9578 22.2608C13.5875 24.6067 14.7494 26.9484 16.4719 28.6564C16.4642 28.91 16.4501 29.1576 16.4268 29.3887C16.4104 29.5531 16.401 29.7127 16.3919 29.8688C16.3179 31.1312 16.2569 32.1727 12.5596 33.7755C11.7469 34.1279 10.8539 34.4848 9.93351 34.8527C8.62704 35.3748 7.26542 35.9189 6 36.5037V45Z" fill="url(#paint0_linear)"/>
<path fill-rule="evenodd" clip-rule="evenodd" d="M6 45H39.75V36.8598C38.2843 36.1375 36.6362 35.479 35.0678 34.8523C34.148 34.4847 33.2555 34.1281 32.4432 33.776C28.8287 32.209 28.7885 31.1786 28.7407 29.9537C28.7335 29.7707 28.7262 29.5833 28.7068 29.3892C28.6813 29.1329 28.6667 28.8559 28.6594 28.5739C30.3391 26.8651 31.4729 24.5639 32.092 22.2521C33.0442 22.0632 33.5991 21.0452 33.8114 20.1043C34.0256 19.7233 34.4707 18.7846 34.3686 17.7195C34.2657 16.6479 33.8989 16.0275 33.4415 15.6808C33.508 15.1888 33.5458 14.7491 33.5458 14.3717C33.5458 14.1085 33.5536 13.7914 33.5623 13.4317C33.6167 11.2047 33.7109 7.34342 32.2555 4.52694C30.5651 1.25553 25.6653 0.146998 23.4268 0.00165963C23.3602 0.000550862 23.2939 0 23.2278 0C20.1482 0 17.4945 1.19412 15.5935 2.87163C13.3296 3.97451 12.4635 5.13863 12.4635 5.13863H13.4312L11.8903 6.95855L12.9455 6.80678C11.9509 9.9725 11.8903 14.5904 11.8903 14.9925C11.8903 15.0508 11.9086 15.2145 11.9414 15.457C11.3158 15.7267 10.7613 16.3604 10.6315 17.719C10.5294 18.7842 10.9746 19.7233 11.1887 20.1038C11.4042 21.0613 11.9751 22.098 12.9578 22.2608C13.5875 24.6067 14.7494 26.9484 16.4719 28.6564C16.4642 28.91 16.4501 29.1576 16.4268 29.3887C16.4104 29.5531 16.401 29.7127 16.3919 29.8688C16.3179 31.1312 16.2569 32.1727 12.5596 33.7755C11.7469 34.1279 10.8539 34.4848 9.93351 34.8527C8.62704 35.3748 7.26542 35.9189 6 36.5037V45Z" fill="url(#paint1_radial)"/>
<rect x="22" y="20" width="2" height="6" fill="#F3F4F7"/>
<rect x="22" y="6" width="2" height="6" fill="#D6D8E3"/>
<rect x="27" y="17" width="2" height="6" transform="rotate(-90 27 17)" fill="#E3E4EC"/>
<rect x="13" y="17" width="2" height="6" transform="rotate(-90 13 17)" fill="#CBCDDB"/>
<rect x="26.5356" y="13.8787" width="2" height="6" transform="rotate(-135 26.5356 13.8787)" fill="#DCDEE7"/>
<rect x="16.636" y="23.7782" width="2" height="6" transform="rotate(-135 16.636 23.7782)" fill="#FCFCFD"/>
<rect x="20.8787" y="12.4643" width="2" height="6" transform="rotate(135 20.8787 12.4643)" fill="#D0D3DF"/>
<rect x="30.7781" y="22.364" width="2" height="6" transform="rotate(135 30.7781 22.364)" fill="#EDEEF3"/>
<defs>
<linearGradient id="paint0_linear" x1="23.2501" y1="10.965" x2="26.0096" y2="37.0891" gradientUnits="userSpaceOnUse">
<stop stop-color="#BFBFCF"/>
<stop offset="1" stop-color="#CDD0DF" stop-opacity="0"/>
</linearGradient>
<radialGradient id="paint1_radial" cx="0" cy="0" r="1" gradientUnits="userSpaceOnUse" gradientTransform="translate(22.5001 7.97452) rotate(90) scale(33.5255 25.1461)">
<stop stop-color="#C5C7D7"/>
<stop offset="0.999966" stop-color="#CDD0DF" stop-opacity="0"/>
</radialGradient>
</defs>
</svg>
