<svg width="45" height="45" viewBox="0 0 45 45" fill="none" xmlns="http://www.w3.org/2000/svg">
<path fill-rule="evenodd" clip-rule="evenodd" d="M24.3155 0.0764593C24.039 0.0408662 23.7837 0.0163456 23.5559 0.00165963C23.4888 0.000550862 23.422 0 23.3554 0C20.253 0 17.5796 1.19412 15.6646 2.87163C13.3839 3.97451 12.5114 5.13863 12.5114 5.13863H13.4862L11.934 6.95855L12.997 6.80678C11.995 9.9725 11.934 14.5904 11.934 14.9925C11.934 15.0508 11.9523 15.2145 11.9854 15.457C11.3552 15.7267 10.7966 16.3604 10.6658 17.719C10.563 18.7842 11.0114 19.7233 11.2271 20.1038C11.4442 21.0613 12.0193 22.098 13.0094 22.2608C13.6437 24.6067 14.8143 26.9484 16.5495 28.6564C16.5417 28.91 16.5275 29.1576 16.5041 29.3887C16.4875 29.5531 16.4781 29.7127 16.4689 29.8688C16.3944 31.1312 16.3329 32.1727 12.6082 33.7755C11.7898 34.1278 10.89 34.4847 9.96323 34.8524L9.9625 34.8527C8.6464 35.3748 7.27474 35.919 6 36.5037V45H26.4631L19.9459 29.751L24.2874 24.4838L19.7809 20.0105L24.3142 14.0105L19.9034 9.63209L24.3155 0.0764593ZM28.6518 45H40V36.8598C38.5235 36.1375 36.8629 35.4789 35.2829 34.8522L35.2824 34.852C34.356 34.4845 33.4572 34.128 32.6391 33.776C28.9978 32.209 28.9573 31.1785 28.9091 29.9536C28.9019 29.7706 28.8946 29.5833 28.875 29.3892C28.8493 29.1329 28.8346 28.8559 28.8273 28.5739C30.5194 26.8651 31.6616 24.5639 32.2852 22.2521C33.2445 22.0632 33.8036 21.0452 34.0175 20.1043C34.2332 19.7233 34.6816 18.7846 34.5788 17.7195C34.4751 16.6479 34.1056 16.0275 33.6448 15.6808C33.7118 15.1888 33.7499 14.7491 33.7499 14.3717C33.7499 14.1086 33.7577 13.7914 33.7665 13.4317C33.8213 11.2047 33.9162 7.34342 32.45 4.52694C31.2915 2.30141 28.6367 1.07687 26.3476 0.475599L22.3187 9.20122L26.9745 13.8228L22.4412 19.8228L27.0014 24.3495L22.2762 30.0823L28.6518 45Z" fill="url(#paint0_linear)"/>
<path fill-rule="evenodd" clip-rule="evenodd" d="M24.3155 0.0764593C24.039 0.0408662 23.7837 0.0163456 23.5559 0.00165963C23.4888 0.000550862 23.422 0 23.3554 0C20.253 0 17.5796 1.19412 15.6646 2.87163C13.3839 3.97451 12.5114 5.13863 12.5114 5.13863H13.4862L11.934 6.95855L12.997 6.80678C11.995 9.9725 11.934 14.5904 11.934 14.9925C11.934 15.0508 11.9523 15.2145 11.9854 15.457C11.3552 15.7267 10.7966 16.3604 10.6658 17.719C10.563 18.7842 11.0114 19.7233 11.2271 20.1038C11.4442 21.0613 12.0193 22.098 13.0094 22.2608C13.6437 24.6067 14.8143 26.9484 16.5495 28.6564C16.5417 28.91 16.5275 29.1576 16.5041 29.3887C16.4875 29.5531 16.4781 29.7127 16.4689 29.8688C16.3944 31.1312 16.3329 32.1727 12.6082 33.7755C11.7898 34.1278 10.89 34.4847 9.96323 34.8524L9.9625 34.8527C8.6464 35.3748 7.27474 35.919 6 36.5037V45H26.4631L19.9459 29.751L24.2874 24.4838L19.7809 20.0105L24.3142 14.0105L19.9034 9.63209L24.3155 0.0764593ZM28.6518 45H40V36.8598C38.5235 36.1375 36.8629 35.4789 35.2829 34.8522L35.2824 34.852C34.356 34.4845 33.4572 34.128 32.6391 33.776C28.9978 32.209 28.9573 31.1785 28.9091 29.9536C28.9019 29.7706 28.8946 29.5833 28.875 29.3892C28.8493 29.1329 28.8346 28.8559 28.8273 28.5739C30.5194 26.8651 31.6616 24.5639 32.2852 22.2521C33.2445 22.0632 33.8036 21.0452 34.0175 20.1043C34.2332 19.7233 34.6816 18.7846 34.5788 17.7195C34.4751 16.6479 34.1056 16.0275 33.6448 15.6808C33.7118 15.1888 33.7499 14.7491 33.7499 14.3717C33.7499 14.1086 33.7577 13.7914 33.7665 13.4317C33.8213 11.2047 33.9162 7.34342 32.45 4.52694C31.2915 2.30141 28.6367 1.07687 26.3476 0.475599L22.3187 9.20122L26.9745 13.8228L22.4412 19.8228L27.0014 24.3495L22.2762 30.0823L28.6518 45Z" fill="url(#paint1_radial)"/>
<defs>
<linearGradient id="paint0_linear" x1="23.3778" y1="10.965" x2="26.1175" y2="37.0933" gradientUnits="userSpaceOnUse">
<stop stop-color="#BFBFCF"/>
<stop offset="1" stop-color="#CDD0DF" stop-opacity="0"/>
</linearGradient>
<radialGradient id="paint1_radial" cx="0" cy="0" r="1" gradientUnits="userSpaceOnUse" gradientTransform="translate(22.6223 7.97452) rotate(90) scale(33.5255 25.3323)">
<stop stop-color="#C5C7D7"/>
<stop offset="0.999966" stop-color="#CDD0DF" stop-opacity="0"/>
</radialGradient>
</defs>
</svg>
