<svg width="45" height="45" viewBox="0 0 45 45" fill="none" xmlns="http://www.w3.org/2000/svg">
<path fill-rule="evenodd" clip-rule="evenodd" d="M32.2798 15.6808C32.3239 15.3529 32.3553 15.0482 32.3713 14.7697L30.0928 17.0618C29.674 17.483 29.1407 17.7701 28.5599 17.887L26.8026 18.2405C26.302 18.3412 25.8154 18.312 25.3705 18.1805L22.4984 21.2918C21.918 21.9206 20.9277 21.9417 20.3207 21.3381L17.6126 18.6449L19.0346 17.2307L21.3718 19.5549L23.7402 16.9892C23.3035 16.3524 23.1035 15.5414 23.2728 14.6898L23.6243 12.922C23.7404 12.3379 24.0259 11.8014 24.4446 11.3801L31.1536 4.63138C31.1362 4.59642 31.1187 4.5616 31.1009 4.52694C29.4203 1.25553 24.5495 0.146998 22.3241 0.00165963C22.258 0.000550862 22.192 0 22.1263 0C19.0649 0 16.4268 1.19412 14.537 2.87163C12.2864 3.97451 11.4254 5.13863 11.4254 5.13863H12.3874L10.8556 6.95855L11.9046 6.80678C10.9159 9.9725 10.8556 14.5904 10.8556 14.9925C10.8556 15.0508 10.8738 15.2145 10.9064 15.457C10.2845 15.7267 9.7333 16.3604 9.60421 17.719C9.50276 18.7842 9.94526 19.7233 10.1581 20.1038C10.3724 21.0613 10.9399 22.098 11.9168 22.2608C12.5428 24.6067 13.6979 26.9484 15.4102 28.6564C15.4025 28.91 15.3885 29.1576 15.3654 29.3887C15.349 29.5531 15.3398 29.7127 15.3307 29.8688C15.2572 31.1312 15.1965 32.1727 11.521 33.7755C10.7133 34.1278 9.8258 34.4846 8.91111 34.8523L8.91072 34.8525L8.91034 34.8527L8.91019 34.8527C7.61147 35.3748 6.25792 35.919 5 36.5037V45H38.5512V36.8598C37.0942 36.1375 35.4559 35.479 33.8967 34.8523L33.8966 34.8523L33.8963 34.8522L33.8961 34.8521L33.8959 34.852C32.9817 34.4845 32.0947 34.128 31.2875 33.776C27.6942 32.209 27.6542 31.1786 27.6067 29.9537L27.6067 29.9536C27.5996 29.7706 27.5924 29.5833 27.5731 29.3892C27.5477 29.1329 27.5332 28.8559 27.5259 28.5739C29.1957 26.8651 30.3229 24.5639 30.9383 22.2521C31.8849 22.0632 32.4365 21.0452 32.6476 20.1043C32.8605 19.7233 33.303 18.7846 33.2015 17.7195C33.0992 16.6479 32.7346 16.0275 32.2798 15.6808ZM38.3029 1.70711C37.9147 1.31658 37.2853 1.31658 36.8971 1.70711L25.8628 12.8067C25.7241 12.9463 25.6295 13.1241 25.591 13.3177L25.2395 15.0855C25.1004 15.7852 25.7137 16.4021 26.4093 16.2622L28.1666 15.9086C28.3591 15.8699 28.5358 15.7747 28.6746 15.6351L39.7088 4.53553C40.0971 4.14501 40.0971 3.51184 39.7088 3.12132L38.3029 1.70711Z" fill="url(#paint0_linear)"/>
<path fill-rule="evenodd" clip-rule="evenodd" d="M32.2798 15.6808C32.3239 15.3529 32.3553 15.0482 32.3713 14.7697L30.0928 17.0618C29.674 17.483 29.1407 17.7701 28.5599 17.887L26.8026 18.2405C26.302 18.3412 25.8154 18.312 25.3705 18.1805L22.4984 21.2918C21.918 21.9206 20.9277 21.9417 20.3207 21.3381L17.6126 18.6449L19.0346 17.2307L21.3718 19.5549L23.7402 16.9892C23.3035 16.3524 23.1035 15.5414 23.2728 14.6898L23.6243 12.922C23.7404 12.3379 24.0259 11.8014 24.4446 11.3801L31.1536 4.63138C31.1362 4.59642 31.1187 4.5616 31.1009 4.52694C29.4203 1.25553 24.5495 0.146998 22.3241 0.00165963C22.258 0.000550862 22.192 0 22.1263 0C19.0649 0 16.4268 1.19412 14.537 2.87163C12.2864 3.97451 11.4254 5.13863 11.4254 5.13863H12.3874L10.8556 6.95855L11.9046 6.80678C10.9159 9.9725 10.8556 14.5904 10.8556 14.9925C10.8556 15.0508 10.8738 15.2145 10.9064 15.457C10.2845 15.7267 9.7333 16.3604 9.60421 17.719C9.50276 18.7842 9.94526 19.7233 10.1581 20.1038C10.3724 21.0613 10.9399 22.098 11.9168 22.2608C12.5428 24.6067 13.6979 26.9484 15.4102 28.6564C15.4025 28.91 15.3885 29.1576 15.3654 29.3887C15.349 29.5531 15.3398 29.7127 15.3307 29.8688C15.2572 31.1312 15.1965 32.1727 11.521 33.7755C10.7133 34.1278 9.8258 34.4846 8.91111 34.8523L8.91072 34.8525L8.91034 34.8527L8.91019 34.8527C7.61147 35.3748 6.25792 35.919 5 36.5037V45H38.5512V36.8598C37.0942 36.1375 35.4559 35.479 33.8967 34.8523L33.8966 34.8523L33.8963 34.8522L33.8961 34.8521L33.8959 34.852C32.9817 34.4845 32.0947 34.128 31.2875 33.776C27.6942 32.209 27.6542 31.1786 27.6067 29.9537L27.6067 29.9536C27.5996 29.7706 27.5924 29.5833 27.5731 29.3892C27.5477 29.1329 27.5332 28.8559 27.5259 28.5739C29.1957 26.8651 30.3229 24.5639 30.9383 22.2521C31.8849 22.0632 32.4365 21.0452 32.6476 20.1043C32.8605 19.7233 33.303 18.7846 33.2015 17.7195C33.0992 16.6479 32.7346 16.0275 32.2798 15.6808ZM38.3029 1.70711C37.9147 1.31658 37.2853 1.31658 36.8971 1.70711L25.8628 12.8067C25.7241 12.9463 25.6295 13.1241 25.591 13.3177L25.2395 15.0855C25.1004 15.7852 25.7137 16.4021 26.4093 16.2622L28.1666 15.9086C28.3591 15.8699 28.5358 15.7747 28.6746 15.6351L39.7088 4.53553C40.0971 4.14501 40.0971 3.51184 39.7088 3.12132L38.3029 1.70711Z" fill="url(#paint1_radial)"/>
<defs>
<linearGradient id="paint0_linear" x1="22.1485" y1="10.965" x2="24.924" y2="37.0857" gradientUnits="userSpaceOnUse">
<stop stop-color="#BFBFCF"/>
<stop offset="1" stop-color="#CDD0DF" stop-opacity="0"/>
</linearGradient>
<radialGradient id="paint1_radial" cx="0" cy="0" r="1" gradientUnits="userSpaceOnUse" gradientTransform="translate(21.4029 7.97452) rotate(90) scale(33.5255 24.9979)">
<stop stop-color="#C5C7D7"/>
<stop offset="0.999966" stop-color="#CDD0DF" stop-opacity="0"/>
</radialGradient>
</defs>
</svg>
