<svg width="45" height="45" viewBox="0 0 45 45" fill="none" xmlns="http://www.w3.org/2000/svg">
<path fill-rule="evenodd" clip-rule="evenodd" d="M45 45H11V36.5037C12.2747 35.919 13.6464 35.3748 14.9625 34.8527L14.9626 34.8527L14.963 34.8525C15.8901 34.4847 16.7896 34.1279 17.6082 33.7755C21.3329 32.1727 21.3944 31.1312 21.4689 29.8688C21.4781 29.7127 21.4875 29.5531 21.5041 29.3887C21.5275 29.1576 21.5417 28.91 21.5495 28.6564C19.8143 26.9484 18.6437 24.6067 18.0094 22.2608C17.0193 22.098 16.4442 21.0613 16.2271 20.1038C16.0114 19.7233 15.563 18.7842 15.6658 17.719C15.7966 16.3604 16.3552 15.7267 16.9854 15.457C16.9523 15.2145 16.934 15.0508 16.934 14.9925C16.934 14.5904 16.995 9.9725 17.997 6.80678L16.934 6.95855L18.4862 5.13863H17.5114C17.5114 5.13863 18.3839 3.97451 20.6646 2.87163C22.5796 1.19412 25.253 0 28.3554 0C28.422 0 28.4888 0.000550862 28.5559 0.00165963C30.811 0.146998 35.747 1.25553 37.45 4.52694C38.9162 7.34341 38.8213 11.2046 38.7665 13.4317V13.4317C38.7577 13.7914 38.7499 14.1085 38.7499 14.3717C38.7499 14.7491 38.7118 15.1888 38.6448 15.6808C39.1056 16.0275 39.4751 16.6479 39.5788 17.7195C39.6816 18.7846 39.2332 19.7233 39.0175 20.1043C38.8036 21.0452 38.2445 22.0632 37.2852 22.2521C36.6616 24.5639 35.5194 26.8651 33.8273 28.5739C33.8346 28.8559 33.8493 29.1329 33.875 29.3892C33.8946 29.5833 33.9019 29.7707 33.9091 29.9537C33.9573 31.1786 33.9978 32.209 37.6391 33.776C38.4573 34.1281 39.3563 34.4847 40.2829 34.8522L40.2831 34.8523L40.2832 34.8523C41.8633 35.479 43.5235 36.1375 45 36.8598V45ZM9.24332 8.48875C10.5539 7.32229 12.2808 6.42552 14.279 6.11656L13.5129 7.13863H14.1517L11.9786 9.68637L15.4101 9.19642C15.0592 11.3853 14.966 13.517 14.942 14.4815C14.2333 15.2162 13.7976 16.255 13.675 17.5273C13.5356 18.9729 14.0268 20.1971 14.3482 20.8308C14.5139 21.4315 14.7895 22.0858 15.2193 22.668C15.5039 23.0537 15.8831 23.44 16.3642 23.7382C17.019 25.7364 18.0448 27.7365 19.496 29.392C19.4859 29.5207 19.4789 29.6396 19.4731 29.7381V29.7381L19.4723 29.751C19.438 30.3331 19.4093 30.3678 19.3529 30.4363L19.34 30.4522C19.1703 30.6662 18.6096 31.1673 16.8175 31.9385C16.0302 32.2774 15.1587 32.6233 14.2251 32.9936L14.2005 33.0034L14.2002 33.0035C12.9004 33.5191 11.4885 34.0793 10.1662 34.6858L9 35.2206V45H1V37.6365C2.08728 37.1298 3.25735 36.6581 4.3799 36.2056L4.38044 36.2054L4.38097 36.2052C5.17145 35.8866 5.9384 35.5774 6.63642 35.2721C9.81337 33.883 9.86578 32.9804 9.92932 31.8863C9.93718 31.751 9.94521 31.6127 9.95934 31.4702C9.97931 31.2699 9.99145 31.0553 9.9981 30.8356C8.51804 29.3553 7.51967 27.3258 6.97858 25.2927C6.13414 25.1516 5.64361 24.2531 5.45844 23.4233C5.27444 23.0935 4.89196 22.2796 4.97966 21.3565C5.09123 20.179 5.56767 19.6298 6.10517 19.3961C6.07699 19.1859 6.06133 19.044 6.06133 18.9935C6.06133 18.645 6.11339 14.6428 6.96801 11.8992L6.06133 12.0308L7.38533 10.4535H6.55382C6.55382 10.4535 7.29803 9.44458 9.24332 8.48875Z" fill="url(#paint0_linear)"/>
<path fill-rule="evenodd" clip-rule="evenodd" d="M45 45H11V36.5037C12.2747 35.919 13.6464 35.3748 14.9625 34.8527L14.9626 34.8527L14.963 34.8525C15.8901 34.4847 16.7896 34.1279 17.6082 33.7755C21.3329 32.1727 21.3944 31.1312 21.4689 29.8688C21.4781 29.7127 21.4875 29.5531 21.5041 29.3887C21.5275 29.1576 21.5417 28.91 21.5495 28.6564C19.8143 26.9484 18.6437 24.6067 18.0094 22.2608C17.0193 22.098 16.4442 21.0613 16.2271 20.1038C16.0114 19.7233 15.563 18.7842 15.6658 17.719C15.7966 16.3604 16.3552 15.7267 16.9854 15.457C16.9523 15.2145 16.934 15.0508 16.934 14.9925C16.934 14.5904 16.995 9.9725 17.997 6.80678L16.934 6.95855L18.4862 5.13863H17.5114C17.5114 5.13863 18.3839 3.97451 20.6646 2.87163C22.5796 1.19412 25.253 0 28.3554 0C28.422 0 28.4888 0.000550862 28.5559 0.00165963C30.811 0.146998 35.747 1.25553 37.45 4.52694C38.9162 7.34341 38.8213 11.2046 38.7665 13.4317V13.4317C38.7577 13.7914 38.7499 14.1085 38.7499 14.3717C38.7499 14.7491 38.7118 15.1888 38.6448 15.6808C39.1056 16.0275 39.4751 16.6479 39.5788 17.7195C39.6816 18.7846 39.2332 19.7233 39.0175 20.1043C38.8036 21.0452 38.2445 22.0632 37.2852 22.2521C36.6616 24.5639 35.5194 26.8651 33.8273 28.5739C33.8346 28.8559 33.8493 29.1329 33.875 29.3892C33.8946 29.5833 33.9019 29.7707 33.9091 29.9537C33.9573 31.1786 33.9978 32.209 37.6391 33.776C38.4573 34.1281 39.3563 34.4847 40.2829 34.8522L40.2831 34.8523L40.2832 34.8523C41.8633 35.479 43.5235 36.1375 45 36.8598V45ZM9.24332 8.48875C10.5539 7.32229 12.2808 6.42552 14.279 6.11656L13.5129 7.13863H14.1517L11.9786 9.68637L15.4101 9.19642C15.0592 11.3853 14.966 13.517 14.942 14.4815C14.2333 15.2162 13.7976 16.255 13.675 17.5273C13.5356 18.9729 14.0268 20.1971 14.3482 20.8308C14.5139 21.4315 14.7895 22.0858 15.2193 22.668C15.5039 23.0537 15.8831 23.44 16.3642 23.7382C17.019 25.7364 18.0448 27.7365 19.496 29.392C19.4859 29.5207 19.4789 29.6396 19.4731 29.7381V29.7381L19.4723 29.751C19.438 30.3331 19.4093 30.3678 19.3529 30.4363L19.34 30.4522C19.1703 30.6662 18.6096 31.1673 16.8175 31.9385C16.0302 32.2774 15.1587 32.6233 14.2251 32.9936L14.2005 33.0034L14.2002 33.0035C12.9004 33.5191 11.4885 34.0793 10.1662 34.6858L9 35.2206V45H1V37.6365C2.08728 37.1298 3.25735 36.6581 4.3799 36.2056L4.38044 36.2054L4.38097 36.2052C5.17145 35.8866 5.9384 35.5774 6.63642 35.2721C9.81337 33.883 9.86578 32.9804 9.92932 31.8863C9.93718 31.751 9.94521 31.6127 9.95934 31.4702C9.97931 31.2699 9.99145 31.0553 9.9981 30.8356C8.51804 29.3553 7.51967 27.3258 6.97858 25.2927C6.13414 25.1516 5.64361 24.2531 5.45844 23.4233C5.27444 23.0935 4.89196 22.2796 4.97966 21.3565C5.09123 20.179 5.56767 19.6298 6.10517 19.3961C6.07699 19.1859 6.06133 19.044 6.06133 18.9935C6.06133 18.645 6.11339 14.6428 6.96801 11.8992L6.06133 12.0308L7.38533 10.4535H6.55382C6.55382 10.4535 7.29803 9.44458 9.24332 8.48875Z" fill="url(#paint1_radial)"/>
<defs>
<linearGradient id="paint0_linear" x1="15.8223" y1="15.503" x2="18.234" y2="38.1395" gradientUnits="userSpaceOnUse">
<stop stop-color="#BFBFCF"/>
<stop offset="1" stop-color="#CDD0DF" stop-opacity="0"/>
</linearGradient>
<radialGradient id="paint1_radial" cx="0" cy="0" r="1" gradientUnits="userSpaceOnUse" gradientTransform="translate(15.1778 12.9113) rotate(90) scale(29.0554 21.607)">
<stop stop-color="#C5C7D7"/>
<stop offset="0.999966" stop-color="#CDD0DF" stop-opacity="0"/>
</radialGradient>
</defs>
</svg>
