<svg width="242" height="65" viewBox="0 0 242 65" fill="none" xmlns="http://www.w3.org/2000/svg">
<g opacity="0.05">
<path d="M93.0946 52.4117H93.3721H93.7016L93.901 52.3331L94.1784 52.4552H94.3519L94.4732 52.6732L94.3866 52.8912L94.0657 53.0482L94.0918 53.2661H94.2738L94.3251 53.5365L94.4362 53.7857L94.6756 54.0265L94.8379 54.1897L94.9063 54.482L95.1456 54.7228L94.9063 55.0494L94.6841 55.2728H94.308L93.9234 55.2986L93.7269 55.101L93.59 54.8215H93.4149L93.2311 55.0065H92.932L92.5986 54.6712L92.5345 54.4778L92.2823 54.2241V53.7857L92.0687 53.5708H91.6756L91.3507 53.6912L91.231 53.4334L90.9063 53.1755L90.6157 53.0207L90.2225 53.2099L89.8635 53.2615L89.573 53.1755L89.3678 52.78L89.0772 52.5221L88.8721 52.866H88.6499V52.591L88.855 52.3847L88.7182 52.0923L88.5473 51.6453L88.4789 51.1811L88.2225 50.8716L87.8122 50.7169L87.6927 50.4247L87.4704 50.2011L87.0601 50.27H86.8208V49.9432L86.7012 49.5995L86.2823 49.5219L86.0686 49.7369L85.6755 49.8745L85.3336 49.6853H84.9746L84.8037 49.9432H84.4447H84.0515L83.9661 50.1324L83.7438 50.3558L83.7097 50.6824L83.2909 50.6053L83.043 50.3558V50.0119L83.1542 49.6767L82.9746 49.4961H82.684L82.6717 49.1516L82.4633 48.9419L82.4156 48.6844H82.1714L82.0107 48.5227L81.9392 48.1752L81.695 48.0854L81.5699 48.2111L81.3436 47.9955L81.6533 47.696L81.6056 47.2167L81.2006 46.8213L80.8552 46.8335V46.6298L80.6288 46.5099L80.2477 46.4619L80.1405 46.0546L80.1642 45.755L80.2892 45.6293L80.1523 45.2759L80.3929 45.1663L80.5576 45.1574L80.7268 44.9873L81.0258 44.8262L81.364 44.6168L81.4594 44.4424H81.7454L81.7802 43.9018L81.6414 43.6489L81.7022 43.1955L81.6414 42.9252L81.9969 42.5415L82.1616 42.6199L82.3567 42.4848L82.5084 42.3321V42.1971H82.7035L82.968 41.9312L83.176 41.8789L83.3407 41.7131L83.2801 41.5561V41.3904L83.0026 41.1637V40.8498L83.1963 40.6535L83.4811 40.5932L83.691 40.3821L84.0358 40.3217L84.4106 40.201L84.8529 40.1483L85.0704 39.9296L85.1603 39.5678L85.3552 39.3717L85.5951 39.613H85.9399L86.0749 39.2661H86.4197L86.8245 39.3566L87.3493 39.2209L87.5441 39.0249H87.844L87.9639 39.3113L88.1514 39.4998H88.4737L88.5899 39.6167L88.8561 39.349L89.2684 39.2058L89.4408 39.3792L89.6431 39.1606H90.1229L90.1829 38.3463L90.3853 38.1126L90.4978 37.9995V37.6828L90.7376 37.5622L90.3628 37.1701L90.5427 37.0043L90.8665 37.149L91.4746 36.5374L91.6584 36.3784L91.7866 36.4214L92.1115 36.8083L92.0516 36.9973L92.2054 37.0747L92.2371 37.336L92.0272 37.5472V37.894L91.6973 37.9693V38.1955L91.4725 38.4217V38.6781L91.6523 38.859V39.1153L91.7273 39.3868L91.6223 39.6281L91.7422 39.7487L91.9372 39.5074L92.0571 39.1606L92.357 39.0852L92.6719 39.236L92.8667 39.432L93.1366 39.1757L93.2791 39.3189L93.3615 39.5074L93.6164 39.4773L93.7738 39.3189H94.0512L94.3123 39.2152V39.0089L94.1393 38.8347L94.2995 38.5189L94.6456 38.7123L94.7675 38.5898L94.8892 38.7123L95.0559 38.5447L95.2738 38.622L95.3636 38.7639L95.3251 38.9831L95.5046 39.2023L95.7226 39.1249L96.0944 39.2925L96.3379 39.5375L96.6072 39.3957L96.9149 39.5118L97.088 39.3376L97.261 39.3957L97.3829 39.5182L97.5559 39.4602L97.6585 39.241H97.838L98.2354 39.5118L98.62 39.7181L99.0559 39.8857L99.6457 39.976V40.2467L99.2995 40.4273V40.7754L99.1072 41.2525L98.761 41.562L98.5046 41.9488L98.2739 42.1809H97.979L97.6969 42.4259V42.8643L97.9149 43.2124L97.7995 43.5993L97.6265 43.7733V43.8958L97.8123 44.0893L97.6008 44.302L97.3892 44.476L97.0944 44.4115L96.7867 44.6178L96.7995 44.7855L96.9342 44.9209L96.7482 45.1078L96.62 45.2368L96.4149 44.9273H96.1841L96.0046 45.2239L95.9277 45.5462L95.6456 45.6881H95.3123L95.2097 45.5849L95.0944 45.817V46.1136L94.9598 46.249L94.7358 46.4984L94.9554 46.8041L95.3522 47.0927H95.597L95.7994 47.3897L96.0166 47.1713L96.0859 47.459L96.0079 47.7205L95.7998 48.1044V48.3135L95.4139 48.4052L95.1842 48.6362L94.8287 48.5055V48.2699L94.638 48.0782L94.3606 47.9386L94.1005 47.8602L93.7277 48.1392L93.797 48.4705L93.9617 48.6362L94.0137 49.0985L94.2306 49.4472L94.6554 49.4907L94.8374 49.3686L95.2536 49.4995L95.375 49.8745V50.2057H95.1756L95.0541 50.04L94.7681 50.0662V50.1882L94.5036 50.2797L94.1525 50.6329V50.8249L93.9271 51.1299V51.4265H93.745L93.511 51.8538L93.4676 52.1067L93.1987 52.2287L93.0946 52.4117Z" fill="#152051" stroke="#152051"/>
<path d="M67.817 45.5775L67.7239 45.4955L67.6065 45.4016L67.52 45.3382L67.44 45.2843L67.1229 45.2764L66.9383 45.2977L66.7823 45.2073L66.6289 45.1594L66.5405 45.1035L66.4053 45.2259L66.4235 45.3961L66.5561 45.4652L66.7095 45.5131L66.7979 45.7605L66.8161 45.952L66.7693 46.1062L66.7927 46.319L66.7277 46.5185L66.5093 46.6276L66.3949 46.7473L66.2285 46.7659L66.1037 46.9707L66.1713 47.2207L66.2337 47.4069L66.4807 47.5718L66.7511 47.5425L66.9097 47.4601L67.1489 47.3484L67.323 47.3962L67.5466 47.5425L67.6129 47.667L67.6743 47.7455L67.7885 47.8499L68.0508 47.9411L68.3216 47.9455L68.6269 47.9414L68.7516 48.2004L68.8226 48.3879L69.1812 48.621L69.5303 48.6875L69.6539 48.4855L69.9462 48.5308L69.6675 48.2475L69.6362 48.1334L69.5852 48.0466L69.5313 47.9888L69.2206 47.939L68.8788 47.7505L68.6356 47.3715L68.7872 47.1455L68.8581 46.8157L68.8177 46.516L68.7747 46.4748L68.6774 46.4017L68.6591 46.347L68.7333 46.021L68.5597 45.8465L68.5533 45.5762L68.3534 45.5429L68.3203 45.6779L68.1557 45.6626L67.9412 45.6983L67.817 45.5775Z" fill="#152051" stroke="#152051" stroke-linecap="round"/>
<path d="M71.2149 53.3818L71.0269 53.3473L70.8901 53.1755L70.7192 52.9347L70.4969 52.9691L70.3602 52.5565L70.4115 51.7657L70.3431 51.1811L70.2063 50.8889L70.0354 50.631L70.0695 50.1153L69.8644 49.9261L69.7277 49.6511L69.8302 49.3416L69.7448 48.9977L69.9328 48.8085L70.1379 48.7742L70.4115 49.118L70.6679 49.204L70.7876 48.9461L71.0781 48.8258L71.4713 48.8085H71.6764L71.9328 48.8945L71.9841 48.4648L71.8474 48.2069L71.9158 47.9833L72.1209 48.0177L72.3089 48.1553L72.514 48.3443L72.6679 48.1896L72.9072 48.2927L73.3003 48.3443L73.5909 48.4648L73.6593 48.1553L73.4542 48.0006L73.1636 47.9317L72.9755 47.7427L72.7704 47.6738L73.0268 47.3988L73.4029 47.2269L73.7277 47.3643L74.0183 47.244L74.2918 47.5364L74.7021 47.9833L75.0781 47.6051L75.3345 47.4504L75.2662 47.072L75.5054 46.8314L75.7447 46.8659L75.7277 46.5907L76.3601 46.5048L76.4798 46.2125L76.6165 46.0406L76.748 46.1728V46.39H77.0441L77.1634 46.5577H77.4016L77.5564 46.4019H77.9972L78.3963 46.0005L78.5214 45.5874H79.0098L79.2479 45.3716L79.4981 45.4195L79.5577 45.6113L79.8197 45.755H80.1652L80.1415 46.0546L80.2487 46.4619L80.6298 46.5099L80.8562 46.6298V46.8335L81.2016 46.8213L81.6066 47.2167L81.6543 47.696L81.3446 47.9955L81.5709 48.2111L81.696 48.0854L81.9402 48.1752L82.0117 48.5227L82.1724 48.6844H82.4166L82.4643 48.9419L82.6727 49.1516L82.685 49.4961L82.5653 49.7713L82.3431 49.9345H82.0098L81.7448 50.2011L81.5226 50.4245V50.734L81.232 50.8545L80.9244 50.8371L80.7021 51.0608L80.4284 51.2502L80.5394 51.5854L80.7873 51.8349L80.6848 52.2817L80.4625 52.5054L80.6848 52.6428L81.0096 52.9522L81.2147 53.1585L81.1293 53.6056L81.2233 54.1901V54.6629L81.0438 54.8435L80.8729 54.6543L80.6165 54.62L80.6506 54.9295L80.7959 55.2303L81.0096 55.4453L80.8386 55.6171L80.548 55.6516H80.3088H80.1208H79.9669C79.9669 55.6516 79.7618 55.6774 79.5994 55.6774C79.4371 55.6774 79.4712 55.5484 79.4712 55.5484L79.2148 55.4795L79.0952 55.3592L78.7875 55.3075V55.548L78.5482 55.6512L78.2576 55.9949H77.9328L77.5739 56.098L77.3644 56.0422L77.3874 55.7435L77.3037 55.526L77.1188 55.456L77.0049 55.2783L76.7722 55.1122L76.7695 54.7131L76.6239 54.4984L76.5826 54.2409L76.3924 54.0497L76.3932 53.8481L76.2543 53.664L76.0872 53.4958L75.9597 53.2524L76.0805 53.0192L75.9688 52.713L75.8081 52.5498L75.7576 52.3427L75.5906 52.142L75.5586 51.8927L75.3609 51.8138L75.0571 51.8689L74.9239 51.7325L74.8469 51.5047L74.706 51.5532L74.5285 51.5538L74.4581 51.3305L74.2635 51.2334L74.1351 51.0938L73.9451 51.1026L73.8031 51.2482L73.5584 51.2823L73.4729 51.1445L73.3337 51.099L73.2154 51.2444L73.2131 51.4533L73.0689 51.6584L73.2 51.7656L73.2991 51.9742L73.1614 52.1981L73.3243 52.3692L73.0371 52.5867L72.863 52.6388L72.9298 52.8826L72.8434 53.0671L72.5733 53.3946L72.2495 53.3922L72.1044 53.1724L72.0045 52.964L71.8386 52.9611L71.6641 53.1336L71.4221 53.1713L71.2149 53.3818Z" fill="#152051" stroke="#152051"/>
<path d="M75.5729 37.2553L75.6583 36.9114L75.7609 36.5332L75.5045 36.2753L75.6755 36.155L75.6583 35.8627L75.7609 35.45L75.9489 35.0031L76.0857 34.6248L76.4276 34.5216L76.5473 34.2638L76.872 33.9888L77.1626 33.9629L77.3934 34.2465L77.496 33.9543H77.7353L77.8378 33.7738L77.9319 33.5675L77.966 33.2064L78.1199 33.0517L78.1457 32.8368L78.4107 32.6133L78.5133 32.8367L78.6681 32.9924H78.9666L79.1158 33.1425L79.3756 33.1258L79.5746 33.2481H79.9394L80.1328 33.4426L80.3706 33.4705L80.5143 33.326H80.8016L80.9841 33.1425H81.2107L81.3987 33.237C81.3987 33.237 81.4871 33.3759 81.5368 33.3759C81.5866 33.3759 81.5977 33.6261 81.5977 33.6261H81.8409L82.0068 33.8262H82.2279L82.2721 33.6817L82.4158 33.8262C82.4158 33.8262 82.6479 33.9374 82.6922 33.9374C82.7365 33.9374 82.9354 34.0486 82.9354 34.0486L83.0902 34.1375L83.2892 34.2154L83.5656 34.1598L83.8087 34.2376L83.7203 34.5267L83.7203 34.8714L83.9309 34.8329L84.2458 34.8027L84.4257 34.9837L84.853 35.2778L85.0179 35.1119L85.3401 35.436V36.1146L85.7451 36.5217L86.1198 36.3558L86.5396 36.2503L86.9145 36.4162L87.2593 36.2503L87.4842 36.7329L87.9264 36.8158L88.2639 37.1551L88.3838 37.4868L89.0135 37.8186L89.2459 38.1579L89.4032 37.9995L89.7781 38.09L89.988 37.7582L90.3853 38.1126L90.1829 38.3463L90.1229 39.1606H89.6431L89.4408 39.3792L89.2684 39.2058L88.8561 39.349L88.5899 39.6167L88.4737 39.4998H88.1514L87.964 39.3113L87.8441 39.0249H87.5442L87.3493 39.2209L86.8246 39.3566L86.4197 39.2662H86.0749L85.9399 39.613H85.5951L85.3552 39.3717L85.1603 39.5678L85.0704 39.9297L84.853 40.1483L84.4106 40.2011L84.0358 40.3217L83.691 40.3821L83.4812 40.5933L83.1963 40.6535L83.0026 40.8498V41.1637L83.1674 41.2771L83.2801 41.3904V41.5561L83.3407 41.7131L83.176 41.8789L82.968 41.9312L82.8639 42.0358L82.7035 42.1971H82.5084V42.3321L82.3567 42.4848L82.1617 42.6199L81.9969 42.5415L81.8019 42.7639L81.6414 42.9252L81.7022 43.1955L81.6414 43.6489L81.7802 43.9018L81.7454 44.4424H81.4594L81.364 44.6168L81.0259 44.8262L80.7268 44.9873L80.5576 45.1575L80.3929 45.1663L80.1523 45.2759L80.2892 45.6293L80.1642 45.755H79.8188L79.5567 45.6113L79.4971 45.4196L79.247 45.3716L79.0088 45.5874H78.5204L78.3954 46.0005L77.9962 46.4019H77.5555L77.4006 46.5577H77.1624L77.0432 46.3901H76.7471V46.1728L76.6156 46.0407L76.325 45.9031V45.542L76.1012 45.2888L76.0515 45.2326L75.9489 44.8371L75.6925 44.6823L75.419 44.373L75.5216 44.0119L75.419 43.4789L75.0942 43.2383L74.7181 42.946L74.5985 42.5505L74.3421 42.3442L74.2566 42.1035L74.4788 41.8457L74.6498 41.4674V41.1063L74.4617 40.7625L74.2737 40.4703L74.4447 40.3328L74.5472 40.0749H74.7524L74.9062 39.9373L75.0258 39.4731L75.0601 39.1981L74.9232 38.8542L74.7352 38.6651L74.4788 38.6307L74.2908 38.4244L74.137 38.2009L73.9062 38.3985L73.7267 38.2181L73.5729 37.9602L73.7267 37.6851L74.0514 37.3584L74.2737 37.1005L74.3591 36.7911L74.6155 36.7739L74.8037 36.9802L74.9062 37.2381L75.2481 37.3584L75.5729 37.2553Z" fill="#152051" stroke="#152051"/>
<path d="M97.9662 51.4042L98.5474 51.3871L98.9406 51.5074H99.2311L99.5559 51.6795L99.8978 51.6105L100.094 51.4129H100.274L100.718 51.645H101.18L101.556 51.5763L101.864 51.7482L102.24 51.645H102.667L102.872 51.3527L103.248 51.3871L103.59 51.5934H104.018L104.171 51.9029H104.479V51.6966L104.575 51.4968L104.748 51.3226V51.0905L104.889 51.0648L105.069 50.8842L105.139 50.7037V50.4007L105.383 50.1557L105.569 49.9687L105.896 49.9108L106.018 49.7882V49.5561L105.761 49.4143L105.678 49.2145L105.518 49.0532L105.287 48.9372V48.7438L105.556 48.6148L105.441 48.2667L105.466 47.9959L105.671 47.7896L105.825 47.5317L106.082 47.3512L106.351 47.622L106.184 47.7896V47.9959L106.415 48.0733L106.71 48.1635L106.902 48.2538L107.12 48.3956H107.402L107.582 48.228L107.877 48.3827L108.133 48.4601H108.543L108.883 48.299L109.159 48.0217L109.312 47.8023L109.797 47.5173L109.85 47.1572L110.313 46.8184L110.881 46.6596L110.85 46.1197L111.05 45.6221L111.25 45.2198L111.797 45.1352L112.208 45.3151H112.797L112.945 45.5375L113.492 45.6009L113.918 45.4369L114.313 45.8339L114.639 45.7493L115.092 45.9822L115.218 45.5587L115.892 45.2729L116.524 45.7388L116.913 45.3471L117.524 45.0824L117.776 44.6589L117.292 44.4471L116.861 44.1613L116.859 43.6334L117.264 43.2293L117.41 43.0831L117.435 42.6963L117.683 42.447V42.0172L117.427 41.6562L117.598 41.3295L117.846 41.0114L118.076 40.7793L117.957 40.5041L118.025 40.1431L117.957 39.7305L117.76 39.9282L117.563 39.7305L117.17 39.6446L117.085 39.2835L117.256 39.1116L117.222 38.7162L117.068 38.4067L116.863 38.2004H116.658L116.47 37.8566L116.623 37.7362V37.4267L116.504 37.2204V37.0484L116.734 36.8336L116.589 36.5327L116.213 36.3091V36.0685L116.059 35.9137L116.204 35.6559L116.149 35.3421L115.982 35.1744L115.991 34.8993L116.23 34.9509L116.294 34.7403L116.478 34.5554L116.589 34.2287L116.452 33.9708H116.58L116.675 33.7215L116.512 33.3261V33.0596L116.247 33.0081L116.256 32.6728L116.051 32.8706L115.948 32.7674L115.743 32.9479L115.632 32.8362L115.589 32.6127L115.264 32.5611L115.051 32.3462L115.004 32.1614L114.854 32.011L114.837 31.6929L115.149 31.4565L115.401 31.203L115.529 30.9966H115.871V30.4035L115.905 29.9909L115.538 29.7846L115.44 29.5826L115.358 29.6643L115.251 29.4365L115.341 29.3463L115.487 29.2001L115.811 29.1485L115.777 28.968L115.94 28.8047L115.88 28.5812L115.64 28.4522L115.41 28.3921L115.282 28.2631L115.213 28.0741H115.051L115.034 27.8677L114.837 28.0655L114.863 28.2632L114.931 28.4867L114.726 28.6759L114.452 28.4008L114.281 28.2288L113.922 28.4696L114.042 28.8477L114.299 29.1056V29.2432L114.606 29.398L114.803 29.5956L114.914 29.8621V30.0685L114.623 29.7932L114.358 29.5268L114.093 29.6901L113.888 29.5182L113.529 29.2432V28.9338V28.5038L113.837 28.1944L113.905 27.7475V27.2488L113.991 26.8878H113.717L113.598 27.1457L113.717 27.438L113.581 27.799L113.376 28.1256H113.017L112.589 28.5555L112.316 28.8306L112.564 29.0798L112.521 29.4322L112.623 29.759L112.743 30.1372L112.401 30.4811L112.247 30.9279L112.008 31.3063L112.059 31.8563L111.854 32.0627L111.905 32.3894H112.213L112.35 32.5784L112.606 32.4581L112.803 32.2605L113.042 32.5012L113.461 32.6473L113.598 32.7848L113.82 32.991L113.991 33.335L113.871 33.61L113.974 33.9368L113.871 34.1602L113.598 34.2462L113.632 34.5557V34.762L113.777 34.9081L114.162 35.0199V35.2605L113.769 35.1746L113.427 34.8307V34.5728L113.41 34.1602L113.683 33.8851L113.478 33.3521L113.316 33.1888L113.205 32.8536L112.812 32.9052H112.453L112.222 33.1373L111.991 33.3694L112.025 33.696L112.111 34.0571L112.008 34.4697L111.794 34.6846L111.529 34.9511L111.376 35.1058V35.4669L111.034 35.656L110.606 35.7763L110.504 35.8795H110.282C110.282 35.8795 110.034 35.9912 110.102 36.06C110.17 36.1288 110.042 36.3609 110.042 36.3609H109.735L109.529 36.0686L109.239 36.0858L108.897 35.8451L108.641 35.7248L108.384 35.3294V35.0027L108.641 35.0886L108.82 35.2691L109.102 35.4496L109.359 35.2778L109.786 35.3637L110.025 35.2262L110.282 34.8479L110.726 34.401L111.102 34.2978L111.171 33.6617L111.547 33.3694L111.598 33.0943L111.299 32.7934L111.171 32.3379L111.307 32.0112L111.495 31.3579L111.615 30.6186L111.957 30.1028L112.042 29.6386L112.145 29.054L111.854 28.7961L111.991 28.3492L112.478 27.8592L112.555 27.2317L112.726 27.0597L112.572 26.4752H112.213L112.008 26.2688H111.598L111.393 25.9766L111.068 26.1486L110.88 26.5612L110.709 26.9738L110.487 27.4724L110.196 27.7646L110.068 27.8935L109.7 28.0741L109.359 28.1944L109.171 28.4351L109.051 28.779L109.273 28.8477V29.1056L109.119 29.3119L109.034 29.7245V29.9997L108.692 30.1716L108.53 30.3348L108.709 30.7045L109.034 30.9281L108.966 31.4095L109.154 31.8564L109.427 31.9424L109.034 32.3034V32.6645L108.692 32.8708L108.453 32.4926V32.1487L108.162 31.7533L107.889 31.3234L107.487 30.9194L107.353 30.6444L107.214 30.8507L106.944 31.1215L107.111 31.2805L107.145 31.4095L107.273 31.4525V32.0371H107.111L107.034 32.2262L106.897 32.295L106.872 32.484L106.846 32.6129L107.187 32.7848V33.0084L106.871 33.1373L107.136 33.4038L106.726 33.6101L106.418 33.9195H106.093L105.974 34.2978H105.393L104.846 34.4182L104.299 34.7277V35.1059L103.85 35.0887L103.518 35.1402L103.338 35.3465L103.018 35.5141L102.697 35.8365L102.402 35.8752V35.6044L102.184 35.527L101.922 35.7914L101.569 36.146L101.415 36.4426L101.479 36.8166L101.069 37.0744L101.031 37.3839L100.684 37.6031L100.454 38.0415L100.518 38.3381L100.377 38.6089V38.841L99.9536 39.2665L99.8958 39.5695L99.7354 39.7307L99.6457 39.9757V40.2465L99.2995 40.427V40.7751L99.1072 41.2522L98.7611 41.5617L98.5047 41.9485L98.2739 42.1806H97.979L97.697 42.4256V42.864L97.9149 43.2122L97.7995 43.599L97.6265 43.773V43.8956L97.8123 44.089L97.6009 44.3017L97.3893 44.4757L97.0944 44.4112L96.7867 44.6176L96.7995 44.7852L96.9342 44.9206L96.7482 45.1075L96.62 45.2365L96.4149 44.927H96.1841L96.0046 45.2236L95.9277 45.546L95.6457 45.6878H95.3123L95.2098 45.5846L95.0944 45.8167V46.1133L94.9598 46.2487L94.7358 46.4982L94.9554 46.8038L95.3522 47.0925H95.597L95.7994 47.3894L96.0166 47.1711L96.086 47.4588L96.0079 47.7203L95.7998 48.1041V48.3132L95.414 48.4049L95.1842 48.636L94.8287 48.5053V48.2697L94.6381 48.0779L94.3606 47.9383L94.1005 47.8599L93.7277 48.139L93.797 48.4702L93.9618 48.636L94.0137 49.0982L94.2306 49.447L94.6554 49.4904L94.8374 49.3684L95.2537 49.4993L95.375 49.8742V50.2055H95.1756L95.0542 50.0397L94.7681 50.0659V50.1879L94.5036 50.2794L94.1525 50.6326V50.8246L93.9271 51.1296V51.4262H93.745L93.511 51.8536L93.4676 52.1064L93.1988 52.2284L93.0947 52.4114H93.7016L93.901 52.3328L94.1785 52.455H94.3519L94.4732 52.6729L94.3866 52.8909L94.0657 53.0479L94.0918 53.2659H94.2739L94.3251 53.5362L94.4619 53.1752L94.8038 53.261L95.0944 53.1752L95.2141 52.8657L95.0944 52.4358L95.3849 52.3155L95.8295 52.2984L96.12 52.5905H96.3593L96.5731 52.3758L96.3423 52.1437L96.1542 51.9545L95.9662 51.8342L96.2055 51.5934L96.0859 51.3355L96.2055 50.9574H96.5644L96.9577 51.1637L97.2311 51.4042L97.5388 51.3184L97.9662 51.4042ZM114.796 27.483L114.626 27.6546L114.44 27.8107L114.61 27.9355L114.75 27.8107H114.967L115.169 27.6234L114.983 27.4363L114.796 27.483ZM114.238 25.7512L114.098 25.876L114.191 26.0164L114.378 25.8916L114.61 25.954L114.548 25.8136L114.238 25.7512ZM113.524 26.3753L113.447 26.5781L113.571 26.6873L113.711 26.5157L113.524 26.3753ZM111.865 25.3612L111.694 25.486L111.756 25.6265L111.632 25.798L111.663 25.9073L111.942 25.9853L112.206 25.8605L112.361 25.8761V25.7201L112.113 25.6576L112.237 25.5173L112.097 25.3145L111.927 25.3769L111.865 25.3612Z" fill="#152051" stroke="#152051"/>
<path d="M122.005 13.6328L121.966 13.8907L121.736 13.9939L121.389 14.226V14.5483L121.53 14.6902L121.345 14.8771L121.223 15.1157L121.389 15.3478L121.454 15.5799L121.748 15.8378L122.018 15.5799H122.197L122.466 15.4251L122.787 15.322L122.697 15.0125V14.6257L122.889 14.4581L122.729 14.2969L122.402 13.9681L122.287 13.7102L122.005 13.6328ZM121.043 13.7875L120.774 13.8004L120.659 13.9165L120.748 14.0067L120.845 14.1035L121.043 13.9165V13.7875ZM117.838 14.0583L117.71 14.0841L117.627 14.1679L117.755 14.2969L117.928 14.2388L118.03 14.1357L117.838 14.0583ZM123.003 15.4539L122.661 15.5631C122.661 15.5631 122.46 15.61 122.413 15.6256C122.367 15.6412 122.134 15.7193 122.134 15.7193L122.025 15.9534L121.963 16.1561L121.824 16.3277L121.87 16.5306L121.607 16.7335L121.731 16.8427L121.917 16.7803L122.072 16.9987L122.088 17.2013L122.227 17.373L122.584 17.4042L122.63 17.6071L122.879 17.4512L123.003 17.6538L123.344 17.7788L123.67 17.6226L123.825 17.4042L123.701 17.1546L123.499 16.8735L123.654 16.7643L123.716 16.4992L123.639 16.2026L123.67 15.9063L123.298 15.7036L123.158 15.8752L123.034 16.1093L122.925 16.0624L123.003 15.766V15.4539ZM121.03 15.7475L121.069 16.0312V16.2117L121.351 16.2891L121.466 16.4051L121.639 16.231L121.736 15.9796L121.569 15.8506L121.248 15.7733L121.03 15.7475ZM116.534 16.0781L116.441 16.1718L116.549 16.2341L116.72 16.359L116.767 16.2028L116.534 16.0781ZM124.601 16.5461L124.446 16.5619L124.228 16.827L124.244 17.0611L124.151 17.2171L124.213 17.6383L124.027 17.8257L124.042 18.2468L123.949 18.6056L123.871 18.9646L124.011 19.0426L124.306 18.8085L124.477 18.6993L124.864 18.4966L125.175 18.4654L125.563 18.1688L125.749 17.81L125.625 17.4979L125.485 17.2638L125.299 17.342L125.113 17.0142L124.973 16.8737L124.802 17.0766L124.694 17.373V17.1548L124.709 16.7645L124.601 16.5461ZM126.214 18.1376L126.059 18.2313L126.276 18.3405L126.431 18.4497L126.602 18.4029L126.555 18.2L126.385 18.2468L126.214 18.1376ZM125.676 19.1687L125.402 19.4609L125.095 19.6845L124.838 20.3206L124.753 20.5958V21.0084L124.889 21.1116L124.924 21.4037H124.804L124.411 21.5242H124.035L124.137 21.7132L124.342 21.8679L124.496 22.0742L124.154 22.0055L123.813 22.0742L123.761 22.3494L123.231 22.3323L123.018 22.5471V22.2978L123.18 21.9884L122.872 22.04L122.787 22.2289L122.411 22.2805L121.966 22.3837L121.795 22.5557L122.103 22.6589L122 22.7792L121.539 22.9168L121.377 23.08L120.736 23.1747L120.556 23.3552L120.086 23.5357L119.898 23.931L119.419 23.9139L119.437 24.1718L119.676 24.1889L119.437 24.3781L119.265 24.6186L119.411 24.7649L119.317 24.9797L119.454 25.1344L119.248 25.186C119.248 25.186 119.248 24.9281 119.12 25.057L118.923 25.2549L119.095 25.4267L119.3 25.4957L119.471 25.7535L119.3 25.9254H118.975L118.53 26.1146H117.864V26.2177L117.454 26.063H116.65L116.308 26.3725L116.394 26.8022L116.53 26.9398L116.377 27.2837L116.274 27.6964L116.411 27.8338L116.65 28.2293L116.975 28.3495L116.958 28.5903L117.146 28.8482L117.077 29.1232H116.616L116.317 28.8224L116.206 28.7106L116.325 28.3669L115.881 28.1261L115.65 27.894L115.368 27.9369L115.026 27.8682L115.043 28.0745H115.206L115.274 28.2635L115.419 28.4098L115.633 28.4527L115.872 28.5816L115.932 28.8053L115.77 28.9685L115.804 29.149L115.479 29.2006L115.244 29.4371L115.351 29.6648L115.419 29.5703L115.53 29.7853L115.898 29.9916L115.864 30.4042V30.9973H115.522L115.394 31.2036L115.142 31.4571L114.83 31.6936L114.847 32.0116L114.996 32.1621L115.043 32.3468L115.257 32.5618L115.582 32.6134L115.625 32.837L115.736 32.9486L115.941 32.7681C115.941 32.7681 116.016 32.8992 116.043 32.8712C116.071 32.8433 116.249 32.6736 116.249 32.6736L116.24 33.0089L116.505 33.0604V33.3268L116.667 33.7223L116.573 33.9715H116.445L116.582 34.2294L116.471 34.5562L116.287 34.7409L116.223 34.9515L115.984 34.8999L115.975 35.1751L116.142 35.3427L116.197 35.6564L116.052 35.9143L116.206 36.0691V36.3098L116.582 36.5333L116.727 36.8341L116.496 37.049V37.2209L116.616 37.4272V37.7367L116.462 37.8571L116.65 38.2009H116.855L117.06 38.4072L117.214 38.7166L117.248 39.1121L117.078 39.284L117.163 39.645L117.556 39.7311L117.753 39.9287L117.949 39.7311L118.018 40.1437L117.949 40.5047L118.069 40.7797L117.838 41.0118L117.59 41.33L117.419 41.6566L117.676 42.0176V42.4473L117.428 42.6968L117.402 43.0836L117.257 43.2297L116.855 43.6336L116.861 44.1615L117.292 44.4474L117.776 44.6591L117.524 45.0826L116.913 45.3474L116.524 45.739L115.892 45.2734L115.219 45.5591L115.092 45.9828L114.639 45.7499L114.313 45.8343L113.918 45.4374L113.492 45.6014L112.944 45.538L112.797 45.3157H112.208L111.797 45.1358L111.25 45.2202L110.85 46.1204L110.881 46.6602L110.313 46.8189L109.849 47.1578L109.797 47.5179L109.312 47.8027L109.159 48.022L108.883 48.2994L108.543 48.4604H108.133L107.877 48.383L107.582 48.2283L107.466 48.3959H107.12L106.902 48.2541L106.71 48.1638L106.415 48.0735L106.184 47.9962V47.7899L106.351 47.6222L106.082 47.3514L105.825 47.532L105.706 47.7312L105.466 47.9962L105.441 48.2669L105.556 48.6151L105.287 48.744V48.9375L105.518 49.0535L105.678 49.2149L105.761 49.4145L106.018 49.5564V49.7885L105.896 49.9112L105.569 49.969L105.139 50.4012V50.704L105.069 50.8845L104.889 51.065L104.748 51.0908V51.3229L104.575 51.4972L104.479 51.6969V51.9032L104.735 52.0236L104.872 52.4534L104.787 52.6942V53.0207L104.573 53.2357L104.667 53.5365L105.043 53.6397L105.385 53.4334L105.633 53.6826L105.522 54.0868L105.864 54.1899L106.052 54.0007L106.359 54.1899H106.701V54.4305L106.291 54.6196L106.189 55.0838H106.479L106.838 54.912L107.026 55.187L107.436 54.9636L107.915 54.826L108.197 54.5423L108.462 54.5336L108.821 54.5165L109.077 54.2586H109.385L109.471 54.4994L109.266 54.7744H109.026V55.0838L109.317 55.2041L109.53 55.4191L109.727 55.8404L109.915 56.0294L110.206 56.3217L110.411 57.0093V57.5767L110.684 57.8346V58.2472L110.975 58.763L111.06 59.2101L111.18 59.6055L111.402 60.0524L111.778 59.9837L111.966 59.5882L112.24 59.5024L112.428 59.7258V59.9837L112.616 60.1727L112.821 60.379L113.197 60.3103L113.368 60.4824L113.795 60.4135L114.009 60.1987H114.445L114.654 60.4092L114.975 60.5511L115.214 60.7745L115.283 61.1871L115.573 61.3763L115.71 61.6858L116.069 61.9092V62.3218L116.53 62.4421L116.941 62.5797L117.385 62.4079L117.65 62.1413L117.744 62.4937L117.932 62.8376L118.086 63.0955L118.582 63.1815L118.804 62.9579L119.231 62.7173L119.744 62.7345L120.026 62.4508L120.428 62.3563L120.496 61.9952H120.838L121.18 61.6513L121.744 61.2903H122.189L122.308 60.9292H122.684L122.984 60.6284L123.351 60.7916L123.642 61.084L124.103 60.895L124.496 61.0153L124.821 61.3419L125.095 61.6169L125.59 61.7889L125.932 61.8921L126.411 61.8061L126.872 61.9265H127.368H127.693L128.078 61.5397L128.479 61.2732V60.8605L128.18 60.5595V60.1729L127.966 59.915L128.035 59.4679L128.266 59.2358L128.479 58.7974L128.744 58.5309L128.752 58.5228L128.731 58.2049L128.565 58.0373L128.504 57.7439L128.686 57.5602V57.2572L128.885 57.0573L129.334 56.606L129.456 56.4835L129.609 56.3288L129.847 56.477L129.795 56.7091L130.116 56.8639L130.308 57.0444L130.731 57.1733L130.924 57.3668L131.142 57.4828L131.385 57.7278L131.936 57.6118L132.142 57.831L132.398 58.0502H132.667V58.2952L132.859 58.6046H133.142H133.347L133.436 58.9141L133.821 58.6949H134.103V58.192L134.501 57.7923L134.962 57.2378L135.193 56.6447L135.802 56.0322L136.488 55.2005L136.59 53.9755L136.834 53.1632L136.462 53.0471L136.27 52.1187L136.103 51.358L136.231 51.113L136.411 50.9325L136.116 50.7261L135.834 50.6359L135.731 50.1717L136.27 49.772H136.539V49.4238L136.795 49.3078L137.167 49.4367L137.552 49.2949V48.9596L137.821 48.7662L137.962 48.9209H138.398L138.654 48.7404L138.815 48.9016L139.347 49.0112L139.565 48.792L139.795 48.9209L140.135 48.5792H140.398V47.9023L140.706 47.7475L140.898 47.3478L141.219 47.4252L141.372 47.5799L141.001 47.9281L141.308 47.9539L141.565 47.812L141.949 47.9152L142.103 47.6186L142.372 47.451L142.436 47.1157L142.315 46.9932V46.7805L142.039 46.8965L141.545 46.4001L141.68 46.0455L141.526 45.8908L141.654 45.5942L141.533 45.4717L141.827 45.1751L142.103 45.1945L142.263 45.3556H142.475L142.678 45.2013L142.676 45.1999L142.735 45.0119L142.249 44.5231L142.111 44.1367L141.897 44.1152V43.8681L141.667 43.6159L141.481 43.4279H141.208V43.691L140.968 43.9326L140.595 43.8788V43.632L140.434 43.4924V43.1809L140.103 43.138L139.719 42.9553L139.356 42.9984L138.993 42.9448L138.79 43.1916L138.689 43.5299L138.448 43.7714L138.544 44.1045L138.416 44.4911L138.096 44.8133V45.4147L137.648 45.7257V46.0801L137.455 45.8118V45.511L137.231 45.2857L137.018 45.3822L136.964 45.6613L136.398 45.876H136.132L136.025 46.1982L135.854 46.4561L135.485 46.4827L135.075 46.0695L135.032 45.2104L135.085 44.695V44.2119L135.149 43.7823V43.3634L134.85 43.2345L134.637 43.1594L134.605 42.9553L134.506 42.722L134.311 42.5257V42.295L134.444 42.1608L134.482 41.8439L134.295 41.6561H134.05L133.783 41.5272V41.2802L133.889 41.1728L133.772 41.0547L133.676 40.679L133.462 40.2924L133.206 40.1098L132.918 40.1957L132.64 40.2172V39.8844L132.87 39.8199V39.5997L132.63 39.3583L132.619 39.1544L132.368 39.1383L132.181 39.3263L131.946 39.2189L131.637 39.337L131.487 39.1544H131.327L131.188 39.2941H130.911L130.729 39.2082V38.8645L130.836 38.7571V38.5317L130.75 38.274L130.953 37.9518L131.071 37.619L130.718 37.2644L130.622 36.7919L130.323 36.6308V36.3302L130.441 36.2228L130.323 36.1047V35.8255L130.003 35.6965L129.907 35.7932L129.811 35.5033L129.971 35.3421L130.142 35.0629L130.398 34.9877L130.302 34.3221L130.227 33.8925V33.6669L129.928 33.1193L129.896 32.5499L129.597 32.346L129.469 32.0452L129.377 31.8139L129.377 31.6721L129.736 31.5302L130.108 31.0016L130.364 30.9242L130.71 31.0273L130.813 30.7952V30.5116L130.62 30.3182L130.71 29.9829L130.967 29.8926V29.6219L130.954 29.2737L131.236 29.0803L131.563 28.7515L131.633 28.5127H131.774L131.749 28.1646H131.479L131.236 27.7004V27.2749L131.018 27.0557L130.556 26.7204V26.5399L130.21 26.4109L130.089 26.1547L130.148 25.8089L130.002 25.6627L129.85 25.4324L129.773 25.2331L129.891 25.1086L129.925 24.9436L129.789 24.8346L129.744 24.5328H129.539L129.283 24.5499L129.3 24.8251L129.283 24.9627L129.488 24.9799L129.616 25.1088L129.454 25.4269L129.18 25.5301L128.889 25.7707C128.889 25.7707 128.838 26.0801 128.684 26.0801C128.531 26.0801 128.257 26.1662 128.257 26.1662L127.949 26.3551L128.018 26.6991L127.71 26.8367L127.796 26.5272L127.864 26.0801L128.146 25.7965L128.274 25.4096L128.684 25.3065L128.787 24.7736L129.043 24.5157L129.146 24.0342V23.8623L129.488 23.4497L129.684 23.2518L129.847 22.9166L130.018 22.676V22.3321L130.214 22.1344L130.001 21.7649L129.659 21.5758L129.522 21.4384L129.864 21.5071L129.898 21.146L129.667 20.9139L129.488 20.7334L129.368 20.871L129.163 20.6989L128.992 20.3552L128.796 20.1574L128.531 20.2863L128.334 20.0887L127.983 20.3379H127.642L127.265 20.5442L127.419 20.6989L127.334 20.9913C127.334 20.9913 127.06 20.8708 126.958 20.8708C126.855 20.8708 126.872 20.6474 126.872 20.6474L127.095 20.4237L126.847 20.1745H126.513L126.407 20.2819L125.864 20.2519L126.086 19.9595L126.351 19.6932L126.274 19.3406L126.018 19.375L125.676 19.1687ZM126.881 19.5262L126.819 19.6198L126.959 19.7135L127.021 19.6043L126.881 19.5262ZM120.428 20.4157L120.35 20.5404L120.459 20.6341L120.598 20.4312L120.428 20.4157ZM123.018 20.4781L122.863 20.6651L122.661 20.712L122.848 20.8525L123.034 20.6651L123.018 20.4781ZM117.825 22.3752L117.742 22.459L117.851 22.5557L118.03 22.5042L117.825 22.3752ZM117.496 23.2865L117.325 23.4267L117.418 23.6141L117.573 23.5828L117.496 23.2865ZM118.83 24.6906L118.644 24.7842C118.644 24.7842 118.721 25.0184 118.721 24.9871C118.721 24.9559 118.861 24.9247 118.861 24.9247L118.83 24.6906ZM117.434 25.3304L117.403 25.5019H117.666L117.806 25.6423L117.822 25.4082L117.666 25.3772L117.434 25.3304ZM115.727 26.906L115.588 26.9529L115.479 27.0933L115.541 27.2805L115.65 27.4209L115.805 27.2495L115.867 27.0466L115.727 26.906ZM128.949 58.3296L128.944 58.3352L128.949 58.3296Z" fill="#152051" stroke="#152051"/>
<path d="M163.415 1.04796C163.408 1.04702 163.398 1.05199 163.386 1.06489C163.283 1.16804 162.992 1.25407 162.992 1.25407L162.685 1.68382H162.565L162.155 1.83855L161.915 2.07931L161.745 2.31987L161.71 2.62934L161.522 2.61221V2.76695L161.796 2.83565L161.471 3.05929L161.368 3.36875L161.676 3.45458L162.155 3.48903L162.565 3.403V3.60931L162.155 3.83295L161.924 4.06505L161.573 3.7985L161.18 3.91898L160.907 3.64376L160.668 3.78137L160.291 3.95323L159.984 4.28002L159.403 4.45188L159.095 4.89875L158.668 5.07081L158.317 5.42319L157.975 5.76711L157.608 5.98188L157.095 6.20552L156.83 6.47207L156.249 7.05655L155.727 7.56386L155.591 8.06231L155.3 8.49226L155.197 8.80172L155.3 9.09386H155.061L154.787 9.24859L154.753 9.60963L154.445 9.76437L154.36 10.0912V10.2801H154.702L154.804 10.5209L155.232 10.452L155.813 10.7099L156.001 10.7443L156.103 11.0194L156.018 11.2946L155.676 11.3804L155.3 11.5525L155.027 11.6556H154.633L154.377 11.3977L154.625 11.1483L154.3 10.8217L154.12 11.0022L153.933 11.3459L154.172 11.6899L154.103 11.8962L154.274 12.068L154.172 12.4806L153.744 12.7901V13.134L153.522 13.3575H153.266L153.112 13.6498V14.2172L152.787 14.5438V14.7845L152.95 14.9479H152.616L152.309 15.1971L151.881 15.3863L151.402 14.9048L151.172 14.6727L150.702 14.6985L150.137 14.7845L149.813 15.18L149.454 15.5411L149.026 16.1771V16.6758L148.685 17.1055L148.36 17.4323L148.001 17.4494L147.676 17.2774L147.214 17.5352C147.214 17.5352 147.317 17.9823 147.266 17.9307C147.214 17.8792 146.941 17.5868 146.941 17.5868L146.702 17.862H146.326C146.326 17.862 146.095 17.7846 146.206 17.6729C146.317 17.5611 146.462 17.3634 146.462 17.3634L146.155 17.14L145.642 17.3634L145.283 17.5354L145.129 17.9652L145.06 18.206L145.163 18.756V19.0828L144.873 19.3578L144.958 18.6873L144.633 18.5841L144.377 18.842L144.086 18.9796L144.206 18.5154C144.206 18.5154 144.531 18.3949 144.531 18.2918C144.531 18.1886 144.462 18.1199 144.462 18.1199L143.967 18.3434L143.334 18.5841L143.197 18.9794L142.719 19.2202H142.394L142.172 19.4436L142.531 19.6673L142.582 19.9078L142.206 20.2517V20.6128L142.411 20.7502L142.582 20.3033L142.701 20.4065V20.7846L142.992 20.9394L143.249 21.1973L143.368 21.2662L143.112 21.524L142.787 21.5067L142.599 21.713L142.454 21.8593L142.855 22.0398V22.2977L142.479 22.1946L142.155 22.2117L141.71 22.3148L141.471 22.7619L141.556 23.2088H141.129L140.753 23.3119L140.514 23.0714L140.086 23.0198V23.3293L140.308 23.5527V23.7935L140.411 24.0513L140.582 24.6187L140.548 24.9453L140.155 24.739L140.001 24.8937L139.642 24.825L139.385 24.653L139.052 24.3177L138.701 24.3264V24.0513C138.701 24.0513 138.548 23.8107 138.548 23.8966C138.548 23.9825 138.36 24.0685 138.36 24.0685L138.12 23.8277L138.257 23.6903L138.479 23.6214V23.2432L138.308 23.0712L137.984 23.2775V22.9509L137.787 22.753H137.59L137.727 22.332L137.317 22.1944L137.197 22.3148L136.821 22.0225C136.821 22.0225 136.787 22.1859 136.659 22.1859C136.531 22.1859 136.548 22.5038 136.548 22.5038L136.411 22.607L136.274 22.4522L136.137 22.4867L136.069 22.693L135.796 22.5038L135.616 22.3233L135.402 22.4867L135.197 22.2804L135.146 22.4867L135.078 22.882L135.334 23.2775L135.385 23.6212C135.385 23.6212 135.471 23.9307 135.385 23.9307C135.3 23.9307 134.924 23.9996 134.924 23.9996L134.565 24.309L134.206 24.4464L134.001 24.1198L133.949 24.3088L133.932 24.4464H133.402L133.12 24.1628L133.24 24.0423L133.112 23.8446L132.599 23.9994L131.949 24.1196L131.522 24.3433L131.206 24.6612L131.043 24.825L131.283 25.0484H131.043L130.838 24.7563V24.4124L130.659 24.2319L130.445 24.5329L130.377 24.7392L130.035 24.6016L129.744 24.5329L129.789 24.8349L129.925 24.9437L129.891 25.1087L129.773 25.2332L129.85 25.4325L130.002 25.6627L130.148 25.809L130.089 26.1547L130.21 26.411L130.556 26.54V26.7205L131.018 27.0557L131.236 27.2749V27.7005L131.479 28.1647H131.749L131.774 28.5128H131.633L131.563 28.7516L131.236 29.0804L130.954 29.2738L130.967 29.8927L130.71 29.983L130.62 30.3182L130.813 30.5116V30.7953L130.71 31.0274L130.364 30.9243L130.108 31.0016L129.736 31.5303L129.377 31.6721V31.814L129.469 32.0453L129.597 32.3461L129.896 32.5502L129.928 33.1193L130.227 33.6669V33.8924L130.302 34.3219L130.398 34.9878L130.142 35.063L129.971 35.3422L129.811 35.5034L129.907 35.7933L130.003 35.6966L130.323 35.8255V36.1048L130.441 36.223L130.323 36.3304V36.631L130.622 36.7922L130.718 37.2647L131.071 37.6191L130.953 37.9519L130.75 38.2741L130.836 38.5319V38.7574L130.729 38.8648V39.2085L130.911 39.2943H131.188L131.327 39.1547H131.487L131.637 39.3372L131.946 39.2192L132.181 39.3266L132.368 39.1386L132.619 39.1547L132.63 39.3588L132.87 39.6004V39.8206L132.641 39.8851V40.2179L132.918 40.1965L133.206 40.1105L133.463 40.293L133.676 40.6797L133.772 41.0554L133.89 41.1737L133.783 41.2811V41.5281L134.05 41.657H134.296L134.482 41.8448L134.445 42.1617L134.312 42.2959V42.5268L134.507 42.7226L134.605 42.9563L134.637 43.1602L134.851 43.2356L135.15 43.3643V43.7832L135.086 44.2127V44.6959L135.032 45.2112L135.075 46.0703L135.486 46.4836L135.854 46.4568L136.025 46.1991L136.132 45.8769H136.399L136.965 45.6621L137.018 45.3831L137.232 45.2864L137.456 45.5118V45.8126L137.648 46.0812V45.7266L138.097 45.4153V44.8139L138.417 44.4918L138.545 44.1051L138.449 43.7721L138.689 43.5305L138.791 43.1925L138.994 42.9455L139.357 42.9992L139.72 42.9561L140.104 43.1387L140.435 43.1818V43.4933L140.595 43.6329V43.8799L140.969 43.9335L141.209 43.6919V43.4288H141.481L141.668 43.6168L141.898 43.869V44.1162L142.111 44.1376L142.25 44.5242L142.474 44.7497L142.736 45.0128L142.677 45.2008L142.678 45.2012L142.475 45.3555H142.263L142.103 45.1943L141.827 45.175L141.533 45.4716L141.654 45.5941L141.526 45.8906L141.68 46.0454L141.545 46.3999L142.039 46.8964L142.315 46.7803V46.9931L142.436 47.1156L142.372 47.4508L142.103 47.6185L141.949 47.915L141.565 47.8119L141.308 47.9537L141.001 47.9279L141.372 47.5798L141.219 47.4251L140.898 47.3477L140.706 47.7474L140.398 47.9021V48.5791H140.135L139.795 48.9208L139.565 48.7919L139.347 49.0111L138.815 48.9015L138.654 48.7403L138.398 48.9208H137.962L137.821 48.7661L137.552 48.9595V49.2947L137.167 49.4366L136.795 49.3076L136.539 49.4237V49.7718H136.27L135.731 50.1716L135.834 50.6358L136.116 50.726L136.411 50.9323L136.231 51.1128L136.103 51.3578L136.27 52.1186L136.462 53.047L136.834 53.1631L136.59 53.9754L136.488 55.2004L135.802 56.0321L135.193 56.6445L134.962 57.2377L134.501 57.7921L134.103 58.1919V58.6948H133.821L133.436 58.914L133.347 58.6045H133.142H132.859L132.667 58.295V58.05H132.398L132.142 57.8308L131.936 57.6116L131.385 57.7277L131.142 57.4827L130.924 57.3666L130.731 57.1732L130.308 57.0443L130.116 56.8638L129.795 56.709L129.847 56.4769L129.609 56.3286L129.456 56.4834L129.334 56.6059L128.885 57.0572L128.686 57.257V57.56L128.504 57.7438L128.565 58.0371L128.731 58.2048L128.752 58.5271L128.949 58.3295L129.342 58.6218H130.009L130.342 58.9569L130.83 58.8281H131.257L131.701 59L132.018 59.3179L132.266 59.8424L132.531 60.1089L132.949 60.2894L133.565 60.341L133.992 60.2205L134.436 60.1174L134.838 59.7134H135.325L136.111 59.6016L136.351 59.7563L136.949 59.8424H137.599L137.838 60.0831L137.975 60.341L138.436 60.4957L138.949 60.4268H139.65L140.146 60.2721H140.693L140.906 60.0573L141.325 59.636L141.872 59.3782L142.265 59.1031L142.565 58.8021L142.71 58.295L143.325 57.6761L143.753 57.4869L144.078 57.6074L144.436 57.7964L144.915 57.5214L145.257 57.3151L145.719 57.4011L146.351 57.4527L146.915 57.2464L147.248 56.9111L147.479 56.3695L147.838 56.2664V55.7849L147.684 55.6301L147.428 55.1317L147.616 54.6501V54.1859L147.719 53.4467L147.855 53.1544L147.719 52.6044L147.479 52.3636L147.265 52.1486L147.001 52.3636L146.813 52.1228L146.949 51.7791L147.137 51.2118L147.402 50.9452L147.941 50.6271L147.939 50.6241L148.206 50.3557L148.787 49.926H149.214L149.608 49.7884L150.12 49.8744L150.531 49.6507H150.89L151.573 49.7197L151.778 49.926L152.12 50.0807L152.257 50.4417L152.633 50.5449L152.907 50.8199L153.3 51.1294L153.471 51.542L153.881 51.6107C153.881 51.6107 154.206 51.8684 154.206 51.9373C154.206 52.0062 154.497 52.178 154.497 52.178L154.744 52.4275L154.958 52.8486L155.471 52.9517L155.984 52.7627L156.172 52.5735H156.633L157.129 52.5048L157.454 52.5907L157.847 52.6938L158.044 52.4962L158.411 52.5909L158.633 52.8143L158.907 53.0549V53.4504L159.146 53.5364L159.471 53.7254H159.796L159.881 53.4159L160.189 53.3128L160.548 53.1064L160.907 52.8143L160.77 52.3844L161.078 51.9891L161.351 51.542L161.454 51.1981L161.864 50.9746H162.155L162.223 51.1981L162.471 51.4477L162.684 51.6625V52.0408L162.428 52.2987L162.77 52.6598L162.856 53.0379L163.044 53.3645L162.975 53.6395L163.214 53.9661L163.249 54.3616L163.42 54.7398L163.283 55.1008L163.556 55.5308L163.403 55.8403L163.155 56.0895L162.873 55.995L162.599 56.1324L162.36 56.3732V56.7171L162.172 56.9061L161.958 57.121L161.967 57.4563L162.274 57.5594L162.599 57.886L162.753 58.2815L162.941 58.4707L163.309 58.8402L163.488 59.2444V59.5881L163.283 60.0007L163.163 60.3962L163.3 60.5338L163.625 60.5509V60.2759V60.1039L163.77 59.9578L163.864 59.6225L163.796 59.3302L163.864 58.9005V58.7286L164.086 58.952L164.232 59.0981V58.7802L164.36 58.4878L164.488 58.6168V58.8489L164.736 58.952L165.095 58.7457L165.522 58.5739H165.745L166.001 58.0923L166.223 57.611L166.565 57.0437V56.6482L166.599 55.8229L166.497 55.1869L166.599 54.5679V53.7427V53.0722L166.702 52.7283V52.0749L166.599 51.4044L166.497 50.9059L166.36 50.3557L166.172 49.8571L166.189 49.2212L166.001 48.6023L166.104 47.9833V47.2613L165.839 46.9949L165.522 46.5049L165.437 46.2642L165.197 45.8515L164.856 45.5076L164.77 45.2155L164.599 45.0434L164.163 44.605L163.813 44.0979L163.591 43.4101L163.539 42.7569L163.369 42.4301L163.206 42.2669L162.89 42.3098L162.633 42.0519L162.565 41.8285H162.257H161.967L162.069 41.6393L162.189 41.519L162.351 41.3556L162.138 41.1407C162.138 41.1407 161.898 41.2438 161.813 41.2438C161.727 41.2438 161.334 41.3127 161.334 41.3127L161.172 41.1493L160.804 41.1064H160.36L159.984 41.1922L159.796 41.3814L159.488 41.5533L159.676 41.8972L159.83 42.1895L159.992 42.3527L159.95 42.6364L159.762 42.499L159.642 42.6021L159.454 42.86V43.0319L159.112 43.1695V42.9459V42.6364L159.01 42.5332L158.907 42.5677L158.702 42.413V42.2411L158.514 42.4474V42.7053L158.753 42.8085V43.0835L158.574 43.264L158.368 43.0577L158.206 42.7569V42.5332L158.001 42.4301L157.83 42.2582L157.582 42.5075L157.36 42.7311H157.078L156.877 42.933H156.616L156.462 42.5848L156.599 42.2067V41.7769L156.856 41.347V40.8656L157.01 40.2812V39.817V39.4043L156.838 39.2152V38.6307L156.941 38.2007V37.5818V37.1176L157.146 36.7739L156.907 36.5331L156.753 36.1376L156.838 35.5876L157.095 35.3297L156.821 34.7795L156.873 34.2121L157.163 33.6277L157.454 33.3353L157.727 32.8711L157.975 32.6217L158.36 32.2351H158.753L159.044 32.0459L158.941 31.9427L158.804 31.7193L159.009 31.5301H159.214L159.454 31.3067L159.719 31.0401L159.608 30.6704L159.967 30.808L160.189 30.5673L160.001 30.3783L159.915 30.0515L160.001 29.7936L160.223 29.5702L160.497 29.5015L160.736 29.2091L161.214 28.9857V28.8309L161.539 28.7794L161.847 28.6589L161.975 28.7878L161.693 28.8825L161.625 29.106V29.3294C161.625 29.3294 161.855 29.4068 161.779 29.4841C161.702 29.5615 162.103 29.467 162.103 29.467L162.223 29.1404V28.7794L162.548 28.642L162.599 28.3841L162.479 27.7823L162.992 27.6964V27.2322L163.266 27.1462L163.283 26.8196H163.027L162.881 26.9657L162.685 27.1462L162.462 27.1807L162.223 26.9399V26.6304L161.941 26.3468L161.847 25.6676V25.1518L161.539 24.6705L161.591 24.189L161.283 23.9827L161.266 23.2263L161.454 23.0027L161.608 22.4353V22.1603H162.069L162.206 21.7477L162.069 21.3693L162.548 21.8164L162.685 22.1085L162.856 22.2806L163.112 22.5385L163.112 22.1085L163.42 22.2633L163.556 22.6072L163.676 22.2117L163.642 21.5583L163.471 21.1457V20.5957L163.257 20.3811L163.419 20.1494L163.573 20.1665L163.608 19.9431H163.266L162.984 19.6594L162.684 19.3584L162.479 19.1694L162.582 18.8942V18.5332L162.958 18.3269L163.223 18.0605L163.334 18.1723L163.009 18.4816V18.8771L163.368 19.1005L163.608 19.41L163.804 19.6078L164.018 19.6852H164.24L164.462 20.1149L164.667 20.3213V20.6136V20.8542L164.548 21.2668L164.565 21.6107L164.77 21.7826L164.975 22.4188L165.146 22.8486L165.3 23.3817L165.437 23.949L165.761 24.3788L165.967 25.015L166.052 25.565L166.223 26.0808L166.095 26.2098L165.941 26.3645L166.103 26.6482L165.984 26.9061L165.838 27.0523V27.1984L166.155 27.2671L166.445 27.6797L166.496 28.0752L166.736 28.316V28.677L167.078 29.0381L167.573 29.5357C167.573 29.5357 167.719 29.871 167.796 29.9483L168.257 30.2578L168.736 30.5157L169.471 30.7393L169.813 30.808L170.121 31.0143L170.309 31.2722L170.958 31.6161L171.522 31.8567L172.121 32.1319L172.428 32.4414H172.77L173.018 32.6906L173.334 32.854H173.83L174.018 33.1119V32.768L173.933 32.3038L173.762 31.5817L173.693 31.0315L173.368 30.722L172.924 30.2751L172.633 30.1546L172.463 29.5357L172.599 29.2262V28.9168L172.975 28.8652V28.6589L172.48 28.5386L172.334 28.3923L172.035 28.2807L171.693 27.7478L171.574 27.06L171.745 26.6818L172.035 26.4926L172.24 26.3552L172.121 26.0458L171.779 25.7705L171.198 25.8394L170.95 25.59L170.633 25.5127L170.274 24.911L170.172 24.4984L170.514 24.3953L170.65 24.0685L170.317 23.7332H170.035L169.86 23.9095L169.42 23.8106L168.975 23.5011L168.89 23.1056L168.445 22.6588L168.326 22.9167L168.163 23.0798V23.2261L168.291 23.5183H167.813L167.531 23.2346L167.061 22.9854L167.009 22.6072L166.941 22.1257L166.616 21.7991L166.377 21.5583L166.172 21.352L165.915 20.9223L166.104 20.7331V20.2862H166.309L166.625 19.9681L166.309 19.822V19.4952L166.121 18.9968L166.326 18.9794L166.565 19.2202L166.89 19.3749V19.0997L166.599 18.6528V18.395L166.736 17.9136L166.548 17.7244L166.907 17.2087L167.129 16.6929L167.556 16.5555L167.864 16.7102L168.155 16.4523L167.967 16.2631L167.676 15.9364L167.505 15.2487V14.7501L167.18 14.4579L167.01 13.9248L166.924 13.3748L166.753 12.9622L166.65 12.4807V11.8617L166.531 11.3117L166.24 10.8646L166.368 10.7357L165.967 10.4693L166.069 10.3146H166.428L166.65 9.83308L166.992 9.69567V9.33463L166.745 9.08521L166.616 8.7844L166.343 8.99071L166.155 8.83598L165.932 8.87023L165.753 9.05075H165.454L165.368 9.21415H165.061V8.97339L164.685 8.99071L164.48 9.02496L164.223 9.00784L164.121 9.1797L163.907 9.39467L163.539 9.40313L163.334 9.55787V9.88466L163.112 9.97049L162.941 9.79883L163.214 9.47204H163.027L162.736 9.59232L162.856 9.3173L163.214 9.16257H163.471L163.745 8.7155L163.676 8.32021L163.539 7.82156L163.257 7.53788L162.992 7.27133L162.838 7.42606L162.821 7.09947H162.565L162.189 7.20262L161.958 6.97053V6.73843L161.659 6.68685L161.762 6.58369L161.915 6.51479L161.787 6.38585L161.813 6.22265L161.984 6.32581L162.172 6.48054H162.497L162.719 6.30848L162.941 6.48054L163.223 6.19686V5.75845L163.095 5.50057L163.386 5.07062H163.71L163.967 5.17377L164.326 5.05349L164.514 4.64087L164.873 4.24538L165.266 4.21113L165.42 3.76405L165.129 3.67823V3.54062H165.488L165.368 3.26561V3.04197L165.18 3.28273L164.992 3.33431L164.77 2.99039L164.454 2.67246V2.85299L164.052 2.69825L163.864 2.88724L163.556 2.83566L163.95 2.57777V2.21673C163.95 2.21673 164.052 1.90726 163.95 2.01042C163.847 2.11357 163.591 2.11357 163.591 2.11357L163.779 1.71828L163.608 1.54622L163.386 1.35724C163.386 1.35724 163.464 1.05455 163.415 1.04797L163.415 1.04796ZM154.52 3.7987L154.402 3.92361L154.141 4.06021L153.93 4.27357L153.949 4.64026L153.859 4.73132L153.904 5.02709L154.074 5.27732L154.249 5.68692L154.52 5.74374L154.704 5.55878L154.843 5.30573L154.69 5.14092L154.916 4.81091L154.877 4.45269V4.02616L154.656 3.84987L154.52 3.7987ZM140.254 12.4426L140.16 12.6142L140.261 12.7156L140.378 12.6142L140.254 12.4426ZM142.721 13.7532L142.38 13.9093L142.201 14.1198L142.007 14.3149H141.93L141.782 14.1354L141.542 14.3771L141.379 14.5411L141.263 14.6582L141.03 14.5488L141.061 14.6737L141.139 14.7829L141.309 15.0325L141.643 15.1496L141.852 14.939H142.131L142.411 14.8298L142.666 14.7126L142.829 14.5488V14.3306L142.969 13.9405L142.721 13.7532ZM140.689 14.939L140.487 15.0015H139.991L139.828 15.1653L139.572 15.3446L139.386 15.1574L138.936 15.2979L138.967 15.5787L139.083 15.6958L139.254 15.8672L139.37 15.9843L139.199 16.1247L138.967 15.922L138.843 16.0468L138.672 15.8751L138.284 15.9531L138.114 15.8596L138.036 16.0623L138.16 16.1872L137.927 16.3121V16.6085L138.114 16.7956L138.067 17.014H138.238L138.455 17.2326L138.393 17.4823L138.672 17.6225L139.044 17.6382L139.199 17.7941H139.479L139.804 17.7007V17.451L139.603 17.2637L139.711 17.1545L139.874 17.3183L140.161 16.7956L140.433 16.5226L140.549 16.6397L140.797 16.3901L140.875 16.156L140.596 16.0623L140.409 16.2496L140.177 16.078L139.897 15.9063L139.618 15.7034L139.711 15.5008L139.859 15.3525L139.975 15.7502L140.153 15.9297L140.456 15.9843L140.642 15.9063H140.797L140.952 15.7504L140.875 15.4226H140.627L140.689 15.1417V14.939ZM137.508 17.2012L137.671 17.3652L137.772 17.7317H137.974V17.529L137.896 17.3573L137.757 17.2169L137.508 17.2012ZM141.759 17.6692L141.565 17.8487L141.387 18.0283L141.208 18.2078L141.309 18.4495L141.48 18.6212L141.371 18.8708L141.464 18.9645L141.604 18.6679L141.961 18.59L142.271 18.4651L142.69 18.2154L142.473 17.8099H142.178L141.759 17.6692ZM140.937 17.7319L140.751 17.7474L140.611 17.8723L140.72 18.1842L140.898 18.3637L141.045 18.075V17.8411L140.937 17.7319ZM139.09 19.1984L138.997 19.2764L139.168 19.3544L139.385 19.526L139.478 19.4011L139.385 19.2609L139.09 19.1984ZM167.396 20.8501L167.219 20.9545V21.2817L167.189 21.5791L167.367 21.6981L167.485 21.8468L167.5 22.1146L167.737 22.2038L167.677 21.9361L167.574 21.7279L167.677 21.3856V20.9692L167.396 20.8501ZM174.422 21.6979L174.23 21.7424L174.037 21.8764L174.141 21.9804L174.281 21.8392L174.422 21.6979ZM173.52 22.5014L173.238 22.6205L172.972 22.5163L172.765 22.5907L172.869 22.8137H173.224H173.579L173.801 22.5907L173.52 22.5014ZM130.31 23.3953L130.139 23.4266L129.853 23.7153V23.9101H130.093L130.171 24.0975L130.372 24.0038L130.605 23.7699V23.3953H130.31ZM173.993 33.4794L173.904 33.7471L173.764 33.8884L173.927 34.052L174.023 34.2528L173.993 34.5206L173.978 34.8627L174.133 35.0188L174.304 34.9221V34.5651L174.459 34.409L174.333 34.1041L174.126 33.8958L174.141 33.628L173.993 33.4794ZM174.629 35.7997V36.023L174.777 36.0973L174.88 35.9635L174.629 35.7997ZM161.895 39.162V39.3852L161.983 39.638L162.101 39.6082L162.386 39.7088L162.582 39.906V40.0176L162.782 40.2183L162.723 40.5159L162.383 40.4117V40.6349L162.279 40.9323L162.693 41.0663L162.9 41.4529L163.285 41.8398V42.0628L163.64 42.5538L163.906 42.5836L164.35 42.7768L164.912 43.0299L165.119 43.3718L165.444 43.818L165.814 44.19L166.258 44.6362L166.805 45.3948L167.056 45.9303L167.352 46.0196L167.663 46.1981L167.959 46.4807L168.195 46.9419L168.388 47.1948L168.669 47.4774L168.964 47.7748V48.0573L169.408 48.4737L169.659 48.7268L169.852 48.9649L170.088 48.7715L169.911 48.3847L169.674 48.1465L169.6 47.8491L169.719 47.5441H170.096L170.266 47.3731C170.266 47.3731 170.665 47.5665 170.739 47.5665C170.813 47.5665 170.739 47.3882 170.739 47.3882L170.532 47.1202L170.184 46.9195L169.985 47.1202L169.659 47.1053L169.526 46.8226H169.275L169.053 46.5996H168.668L168.417 46.436L168.121 46.1384L167.929 45.945C167.929 45.945 167.87 45.5285 167.914 45.4838C167.959 45.4392 167.722 45.1715 167.722 45.1715L167.47 44.7847V44.6064L167.53 44.3832L167.47 44.0709H167.692L167.973 43.9816L168.121 43.833L168.18 43.6395L167.766 43.4759L167.529 43.2825L167.16 43.0595L166.731 42.8363L166.405 42.5536L165.903 42.2711L165.533 41.9437L165.148 41.795L164.867 41.7207L164.431 41.267L164.202 41.0365L164.054 40.6347L163.876 40.3819H163.655L163.241 40.1141L163.152 39.876L162.782 39.8016L162.575 39.5933L162.471 39.3554L162.279 39.2661L161.895 39.162ZM175.975 40.1433L175.827 40.1582V40.4856V40.7532H176.034L175.975 40.5004V40.3368V40.1433ZM158.271 41.0808L157.99 41.1404L157.842 41.304V41.5122V41.7354L158.093 41.6312L158.227 41.7652L158.374 41.6165L158.434 41.3187L158.271 41.0808ZM175.864 42.397L175.664 42.5979L175.605 42.8508L175.708 43.0887L175.635 43.4753L175.827 43.5201L175.93 43.2821L175.871 42.9549L175.916 42.6723L175.864 42.397ZM175.457 44.383L175.383 44.4573L175.442 44.7104L175.561 44.5317L175.457 44.383ZM175.043 45.1268L174.969 45.5137L175.065 45.61L174.984 45.9003L175.013 46.3463L175.191 46.4209L175.25 46.1828L175.161 45.7071L175.324 45.5435L175.294 45.201L175.043 45.1268ZM174.895 47.3283L174.599 47.3729L174.658 47.6851L174.688 47.9827L174.806 48.0273V47.7893L174.895 47.5959V47.3283ZM175.62 47.5516V47.6851L175.812 47.7893V47.5661L175.62 47.5516Z" fill="#152051" stroke="#152051"/>
<path d="M88.5473 22.4353L88.5901 22.1173L89.1115 21.5929H89.9832L90.2567 21.1115V20.1831L90.8038 19.908L91.5217 19.547L92.0174 19.7361H92.3081L92.5474 19.9768L92.8409 19.771L92.7695 20.1315L93.0601 20.0971L93.4704 20.1143V20.3894L93.5559 20.6989L93.3678 20.5785L93.1713 20.3808L92.9918 20.5613L93.0772 20.888V21.2147L93.3679 21.3694L93.59 21.5928V21.9539L93.8379 22.0743V22.4783L94.12 22.762L94.2567 23.2433V23.742L94.1713 24.1717L94.2738 24.4125L94.2824 24.9368L94.5815 25.2377L94.5644 25.6159L94.496 26.2348L94.1969 26.7593L93.7439 27.2148H93.2652L92.7354 27.3179L92.2738 27.1461L91.7695 26.8624L91.4533 26.5443V26.0801L91.1285 25.7535L90.9746 25.3925L90.8549 25.0485L90.6328 24.6704L90.5131 24.0342L90.2738 23.9311L90.3507 23.5442L90.5473 23.3466L90.308 23.1058L90.1969 23.4067L90.0344 23.57L90.1028 23.9483L90.1114 24.3867L89.9234 24.5758L90.1713 24.8251L90.1028 25.2034L89.8636 25.7363L89.4448 25.8652L89.1115 26.2005L88.9831 26.8108L88.6669 27.1289L88.9233 27.937L88.6755 28.3754L89.0259 28.7279L89.402 29.106L89.8294 28.7966L89.9148 28.3668L89.6926 28.1433L89.7268 27.765V27.4728L90.0174 27.1633H90.308L90.4105 27.937L90.5046 28.4442L90.8038 28.745L90.9918 29.1405L91.479 29.2866L91.6243 29.1405L91.5046 28.8481L91.7952 28.6075L91.8123 28.0058L92.3422 28.0917L92.8379 27.9026L93.2482 28.1261L93.7097 27.98H94.0259L94.2226 28.1776L94.5131 28.6247L94.2738 28.8654V29.2436L94.4875 28.9771L94.7867 28.6763L95.1969 28.5904L95.5388 28.0917V27.662L95.6755 27.3696L96.1199 27.1462V26.8712L96.5473 26.6133V26.1834L96.4789 25.7708H96.7695L96.8635 25.9857L97.2481 26.3725L97.5387 26.8196V27.4212L97.4361 27.7308L97.2823 27.8854L97.0259 27.6275L96.6669 27.5417L96.1199 27.7307V28.1777L96.2566 28.5904V28.9343L96.6498 29.0374L97.0259 29.2093L97.4533 29.003V28.6935L97.8977 28.5904L98.3251 28.7967L98.2566 28.5217L98.9233 28.6419L99.2823 28.5732L99.9318 28.6591H100.308L100.496 29.003H100.667V28.6935L101.214 28.5217H101.505L101.624 28.9685H101.3L101.197 29.278L100.941 29.364L101.334 29.7251H101.607L102.12 29.5016L102.607 29.5961L103.137 30.1291L103.317 29.9486H103.676L104.129 29.8024L104.308 29.983L104.257 30.2237L103.983 30.4128V30.705L104.308 30.9802L104.334 30.6621L104.479 30.516L104.821 30.6019V30.3269L105.146 30.2753L105.214 29.8627L105.163 29.364L105.471 29.2093L105.736 29.1319L106.052 29.4501L106.188 29.3125L106.539 29.7509L106.941 30.1549L107.266 30.4816L107.345 30.6448L107.206 30.8511L107.039 31.0187L106.936 31.1219L107.103 31.281L107.137 31.4099L107.265 31.4529V31.7194V32.0374H107.103L107.026 32.2265L106.889 32.2953L106.838 32.6133L107.18 32.7852V33.0087L106.864 33.1376L107.129 33.4041L106.718 33.6104L106.411 33.9199H106.086L105.966 34.2981H105.385L104.838 34.4185L104.291 34.728V35.1063L103.847 35.089L103.518 35.1406L103.338 35.3469L103.017 35.5145L102.697 35.8369L102.402 35.8756V35.6048L102.184 35.5274L101.921 35.7917L101.569 36.1464L101.415 36.4429L101.479 36.8169L101.069 37.0748L101.03 37.3842L100.684 37.6034L100.453 38.0418L100.517 38.3384L100.376 38.6092V38.8413L99.9534 39.2668L99.8957 39.5698L99.7354 39.731L99.6457 39.976L99.0559 39.8857L98.62 39.7181L98.2354 39.5118L97.838 39.241H97.6585L97.5559 39.4602L97.3829 39.5182L97.261 39.3958L97.088 39.3377L96.9149 39.5118L96.6072 39.3958L96.338 39.5376L96.0944 39.2926L95.7226 39.125L95.5046 39.2023L95.3251 38.9831L95.3636 38.7639L95.2739 38.6221L95.0559 38.5447L94.8892 38.7124L94.7675 38.5898L94.6456 38.7124L94.2995 38.5189L94.1393 38.8348L94.3123 39.0089V39.2152L94.0512 39.3189H93.7738L93.6164 39.4774L93.3615 39.5075L93.2791 39.3189L93.1366 39.1757L92.8668 39.4321L92.6719 39.2361L92.357 39.0853L92.0571 39.1607L91.9372 39.5075L91.7422 39.7488L91.6223 39.6282L91.7273 39.3869L91.6523 39.1154V38.859L91.4725 38.6781V38.4218L91.6973 38.1955V37.9693L92.0272 37.894V37.5472L92.2371 37.3361L92.2054 37.0748L92.0516 36.9974L92.1115 36.8083L91.9448 36.6407L91.8807 36.5762L91.7866 36.4215L91.6584 36.3785L91.4746 36.5374L91.0989 36.9154L90.8665 37.149L90.5427 37.0043L90.3628 37.1702L90.7376 37.5623L90.4978 37.6829V37.9996L90.3853 38.1126L89.988 37.7583L89.7781 38.09L89.4032 37.9996L89.2459 38.1579L89.0135 37.8186L88.6687 37.6225L88.3838 37.4869L88.2639 37.1551L87.9264 36.8158L87.4842 36.7329L87.2593 36.2504L86.9145 36.4162L86.5396 36.2504L86.1198 36.3559L85.7451 36.5218L85.3401 36.1146V35.7527V35.436L85.0179 35.1119L84.853 35.2778L84.4257 34.9837L84.2458 34.8028L83.9309 34.8329L83.7202 34.8715V34.5267L83.8086 34.2377L83.5655 34.1598L83.289 34.2154L82.9353 34.0487L82.6478 33.9375L82.4157 33.8262L82.272 33.6818L82.2278 33.8263H82.0067L81.8408 33.6261H81.5977L81.5368 33.3759L81.3987 33.237L81.2107 33.1425H80.9841L80.8016 33.326H80.5143L80.3705 33.4705L80.1327 33.4427L79.9393 33.2481H79.5746L79.3755 33.1258L79.1157 33.1425L78.9665 32.9924H78.668L78.5131 32.8367L78.4104 32.6133L78.1455 32.8368L78.1199 33.0517L77.966 33.2065L77.9319 33.5675L77.8378 33.7738L77.7353 33.9543H77.496L77.3934 34.2466L77.1626 33.9629L76.872 33.9888V33.4041L76.5814 33.1291L76.2566 33.0431L76.3591 32.7852L76.4447 32.5102L76.2053 32.2694L76.0515 31.9257L76.1027 31.6849L76.4276 31.3583L76.6156 31.0144L76.5301 30.7049L76.8037 30.6362L77.2139 30.3784V30.0173L77.3848 29.811L77.8122 29.7938L78.0002 29.5702L78.0173 29.3123L78.3763 29.1748L78.6669 28.7794L79.0601 28.7966L79.4019 28.5903L79.8635 28.6934L79.9319 28.4355L80.0857 28.2808L80.3763 28.4183L80.6156 28.6762L80.9917 28.7966L81.1284 29.106L81.2652 29.45L81.4704 29.2436L81.4361 28.745L81.1284 28.4699V27.8854L81.402 27.8166L81.4874 27.7307L81.1114 27.5759L80.8891 27.318H82.4541L84.7182 27.3008L85.4361 27.0429V26.596L85.5558 25.4613H86.0345L86.4448 25.1346V24.6876L86.7525 24.5672V23.9826L87.0259 23.9655L87.6243 23.4841L87.9148 23.6216L88.5473 22.4353ZM89.5878 26.6877L89.5257 26.7812L89.6343 26.9217L89.7739 26.7812L89.5878 26.6877ZM104.046 26.906H103.875L103.689 26.6253L103.58 26.6877L103.255 26.3756L103.006 26.1104L103.1 25.8295L103.348 25.7515L103.441 25.5956L103.27 25.4552L103.286 25.0806L103.177 25.0495L103.068 24.7686L102.836 24.753L102.65 24.4878L102.712 24.1445L102.96 23.8013L103.255 23.8324L103.348 23.9417L103.456 23.9885L103.503 23.7856L103.86 23.6765L104.139 23.38L103.953 23.1772L104.201 23.0211L104.48 23.1304L104.558 22.8963V22.6622H104.915L105.085 22.8339L105.264 22.6545L105.302 22.4907L105.69 22.4126L105.558 22.2801L105.225 22.163V22.0383L105.613 21.9289L106.016 21.8198L106.218 21.617H106.481V21.4297L106.854 21.4141L106.652 21.2113L106.978 21.1957L107.102 21.3205L107.086 21.0085L107.242 20.8524L107.071 20.6496L107.179 20.4779L107.366 20.6652H107.598V20.4311L107.94 20.5559L108.11 20.3687L108.281 20.1659H108.498L108.87 19.9943L109.134 20.0879H109.522L109.778 19.8304L110.08 19.8538L110.22 20.0568H110.546L110.701 20.2127L110.98 20.1346H111.368L111.624 19.8773L111.926 19.7135L112.33 19.5574H112.702L112.919 19.9007V20.2751L112.594 20.5716L112.299 20.8524L111.911 20.8836L111.446 21.102L111.027 20.9461L110.825 21.1489L110.344 21.1333H109.724L109.491 21.3829H109.01L108.653 21.5857L108.762 21.8354L108.514 21.9289L108.219 21.8978H107.955L107.924 22.0694L107.645 21.9913V22.2722L107.366 22.475L107.133 22.6467V22.3815L106.947 22.5531L106.993 22.8652H106.807L106.675 22.7325V22.8807V23.1148L106.54 22.9782L106.365 23.1537L106.218 23.302H106.016L105.861 23.5048L105.659 23.848H105.333L105.07 24.0665V24.363L104.806 24.4722L104.713 24.7843L104.496 25.0026V25.3928L104.387 25.6736L104.527 26.0792L104.403 26.4849L104.573 26.7502L104.651 27.031L104.558 27.1246L104.294 27.2495V27.0465L104.046 26.906ZM113.928 11.5697L113.8 11.6084L113.902 11.7502V11.8791H114.082V11.6341L113.928 11.5697ZM113.889 12.6657L113.8 12.8075L113.466 12.872L113.248 12.9881L113.415 13.0654L113.338 13.2459L113.479 13.2846H113.761L113.986 13.0589L114.152 12.8913L114.095 12.6399L113.889 12.6657ZM112.825 12.4336L112.755 12.5045L112.889 12.6399L113.133 12.5496V12.3433H112.992L112.825 12.4336ZM112.639 12.8397L112.453 12.627L112.312 12.7688L112.21 12.9752V13.233L112.428 13.2717L112.479 13.4265L112.748 13.362L112.921 13.1879L113.05 13.0589L113.12 12.8462H112.928L112.639 12.8397ZM111.877 13.7359L111.793 13.8197V13.9809H111.966L112.03 13.7746L111.877 13.7359ZM111.518 13.0783L111.428 12.9881H111.146V13.1815L110.992 13.3362L111.082 13.4265L111.389 13.362L111.505 13.478L111.774 13.4136L111.851 13.233L112.043 13.2975L111.941 13.0654L111.768 12.8913L111.518 13.0783ZM112.941 10.925L112.864 11.0797L112.998 11.215L113.127 11.0861L112.941 10.925ZM112.659 11.286H112.453V11.5181L112.671 11.7373V11.9178L112.864 11.8276L112.748 11.5826L112.659 11.286ZM111.377 11.9565H111.197L111.159 11.9952L111.306 12.1434L111.377 11.9565ZM111.53 12.2531L111.409 12.3755L111.53 12.511L111.671 12.4981L111.53 12.2531ZM111.646 11.6857V11.8533H111.825L111.787 11.6599L111.646 11.6857ZM111.896 12.1047V12.2531H112.043L111.928 12.137L111.896 12.1047ZM112.043 12.4465L112.107 12.511L112.223 12.3949L112.043 12.4465ZM112.223 11.7631V11.9436L112.377 11.9565V11.7631H112.223ZM111.992 11.402L112.082 11.5697L112.165 11.4858L112.082 11.402H111.992ZM110.338 12.4852L110.242 12.5818L110.409 12.7495L110.594 12.756V12.4465L110.466 12.2789L110.338 12.4852ZM110.761 12.2789L110.825 12.4594H110.953V12.3047L110.761 12.2789ZM110.043 11.2473L109.915 11.3763V11.5181L109.768 11.6663L109.505 11.4794L109.287 11.5955V11.7502L109.018 11.5568L108.812 11.6341L108.877 11.9436L109.069 11.8791V12.0854L109.274 12.137L109.46 11.95L109.723 11.8405L109.941 11.9049H110.261L110.492 11.6728L110.274 11.4536L110.421 11.3053L110.171 11.157L110.043 11.2473ZM109.312 10.925H109.03L108.864 10.7573L108.748 10.9894L108.896 11.1377L108.953 11.3118L109.287 11.1957L109.402 11.3118L109.62 11.2215L109.71 11.3118V11.1184L109.562 10.97H109.428L109.312 10.925ZM109.562 12.2853H109.453L109.492 12.4465L109.723 12.4594L109.562 12.2853ZM109.607 12.627L109.492 12.7431L109.582 12.8333L109.8 12.8849L109.659 12.7431L109.607 12.627ZM110.543 10.9636V11.1313H110.671L110.8 11.0023L110.543 10.9636ZM69.8676 27.4573L70.1337 27.5173L70.3617 27.4518L70.4485 27.2826L70.6548 27.3153L70.8476 27.5092L70.8557 27.7741L71.0132 27.8232L71.0458 28.0308L71.2901 28.0744L71.3443 27.8778L71.2114 27.7441L71.3254 27.6294L71.3987 27.7031L71.6321 27.8995V28.1946L71.5995 28.4512L71.7352 28.6751L71.871 28.7678L71.9198 29.101L71.8004 29.3521L71.2304 29.6415L70.3671 28.6094L69.8676 27.4573ZM105.132 27.8266L104.884 27.9514L104.698 28.0138L104.744 28.4195L104.775 28.638L104.946 28.6848L105.008 29.0124L105.334 29.0436L105.442 28.7784L105.287 28.5132L105.303 28.2167L105.132 27.8266ZM99.6402 26.4693L99.299 26.5629L99.0973 26.8282L98.9422 27.031L99.0507 27.3273L99.299 27.4211L99.5316 27.5146L99.7489 27.3586L100.013 27.4053L100.152 27.0778L99.935 26.7969L99.9194 26.5629L99.6402 26.4693Z" fill="#152051" stroke="#152051"/>
<path d="M77.3633 56.0369L77.3867 55.7414L77.303 55.5202L77.1162 55.4557L77.0034 55.2795L76.768 55.1112L76.7699 54.716L76.624 54.5027L76.5773 54.2385L76.3924 54.0506V53.8471L76.2601 53.6729L76.087 53.4949L75.9586 53.2522L76.0792 53.0213L75.9683 52.7141L75.8029 52.5497L75.7523 52.3344L75.5908 52.1446L75.5577 51.8941L75.3632 51.8139L75.0558 51.8667L74.9215 51.7297L74.8456 51.5047L74.7016 51.5536L74.5304 51.5536L74.4565 51.3305L74.258 51.2307L74.1374 51.0977L73.9467 51.1016L73.8008 51.2542L73.5595 51.2855L73.472 51.1427L73.3338 51.0957L73.2112 51.2444L73.2093 51.4499L73.0692 51.6573L73.1976 51.7689L73.2988 51.9743L73.1587 52.1994L73.3241 52.3677L73.04 52.5869L72.861 52.6358L72.9272 52.8863L72.8416 53.0663L72.5808 53.3931L72.2462 53.3911L72.1002 53.17L72.003 52.9626H71.8356L71.6644 53.1348L71.4212 53.172L71.213 53.3813L71.3006 53.7258L71.5613 54.125L71.6741 54.5222L72.0555 54.7844L72.3084 54.9038L72.4621 55.3089L72.7521 55.5476L72.682 55.892L72.9233 56.1132L72.9914 56.663L73.2307 56.9057L73.6082 56.9566L73.8202 57.1738L73.8786 57.3519L74.1705 57.3851L74.2561 57.6963L74.511 57.9722L74.4117 58.2677L74.2541 58.5221L74.4973 58.8313L74.6296 59.1874L74.6316 59.4164L74.9079 59.6023L74.9351 60.0172L75.1258 60.5827L75.1764 60.9095L75.5539 60.9995L75.9508 60.8606L76.2193 60.9819L76.6337 60.7921L76.5987 60.2402L76.6668 59.796L76.5637 59.2129L76.5617 58.7295L76.9392 58.1092L77.1104 57.9566V57.8352L77.3069 57.6395L77.4704 57.0094L77.3672 56.6807L77.1882 56.5006L77.1863 56.2208L77.3633 56.0369Z" fill="#152051" stroke="#152051"/>
</g>
<rect y="32.1338" width="242" height="13" fill="white"/>
<path d="M40.2987 35.92H42.6587C43.0387 35.92 43.3887 35.96 43.7087 36.04C44.0287 36.1133 44.3053 36.2333 44.5387 36.4C44.772 36.56 44.952 36.7733 45.0787 37.04C45.212 37.3 45.2787 37.6133 45.2787 37.98C45.2787 38.3533 45.2087 38.6733 45.0687 38.94C44.9353 39.2067 44.7487 39.4267 44.5087 39.6C44.2687 39.7667 43.9853 39.89 43.6587 39.97C43.3387 40.0433 42.9953 40.08 42.6287 40.08H41.6187V43H40.2987V35.92ZM41.6187 39.02H42.5387C42.952 39.02 43.292 38.9433 43.5587 38.79C43.832 38.63 43.9687 38.3633 43.9687 37.99C43.9687 37.8033 43.932 37.6467 43.8587 37.52C43.7853 37.3867 43.6853 37.2833 43.5587 37.21C43.4387 37.1367 43.292 37.0833 43.1187 37.05C42.9453 37.0167 42.7587 37 42.5587 37H41.6187V39.02ZM47.4408 43H46.0108L49.0108 35.92H50.2908L53.2708 43H51.8108L51.1708 41.42H48.0608L47.4408 43ZM48.4608 40.34H50.7808L49.6208 37.38L48.4608 40.34ZM56.7687 41.87C57.1887 41.87 57.5321 41.7867 57.7987 41.62C58.0721 41.4467 58.2087 41.1867 58.2087 40.84C58.2087 40.66 58.1721 40.5067 58.0987 40.38C58.0254 40.2533 57.9254 40.15 57.7987 40.07C57.6721 39.9833 57.5221 39.9233 57.3487 39.89C57.1754 39.85 56.9887 39.83 56.7887 39.83H55.7387V41.87H56.7687ZM54.4287 43V35.92H59.0787V37.05H55.7387V38.7H56.8987C57.2787 38.7 57.6287 38.7433 57.9487 38.83C58.2687 38.91 58.5454 39.04 58.7787 39.22C59.0121 39.3933 59.1921 39.6133 59.3187 39.88C59.4521 40.1467 59.5187 40.4633 59.5187 40.83C59.5187 41.2033 59.4487 41.5267 59.3087 41.8C59.1687 42.0733 58.9787 42.3 58.7387 42.48C58.4987 42.6533 58.2187 42.7833 57.8987 42.87C57.5787 42.9567 57.2354 43 56.8687 43H54.4287ZM68.5334 39.44C68.5334 39.9933 68.4367 40.5 68.2434 40.96C68.0567 41.42 67.7934 41.8167 67.4534 42.15C67.12 42.4767 66.72 42.7333 66.2534 42.92C65.7934 43.1 65.29 43.19 64.7434 43.19C64.2034 43.19 63.7 43.1 63.2334 42.92C62.7734 42.7333 62.3734 42.4767 62.0334 42.15C61.6934 41.8167 61.4267 41.42 61.2334 40.96C61.0467 40.5 60.9534 39.9933 60.9534 39.44C60.9534 38.8867 61.0467 38.3833 61.2334 37.93C61.4267 37.47 61.6934 37.08 62.0334 36.76C62.3734 36.4333 62.7734 36.18 63.2334 36C63.7 35.82 64.2034 35.73 64.7434 35.73C65.29 35.73 65.7934 35.82 66.2534 36C66.72 36.18 67.12 36.4333 67.4534 36.76C67.7934 37.08 68.0567 37.47 68.2434 37.93C68.4367 38.3833 68.5334 38.8867 68.5334 39.44ZM67.1334 39.44C67.1334 39.0933 67.0767 38.7667 66.9634 38.46C66.85 38.1467 66.69 37.8767 66.4834 37.65C66.2767 37.4233 66.0234 37.2433 65.7234 37.11C65.43 36.9767 65.1034 36.91 64.7434 36.91C64.3834 36.91 64.0567 36.9767 63.7634 37.11C63.47 37.2433 63.22 37.4233 63.0134 37.65C62.8067 37.8767 62.6467 38.1467 62.5334 38.46C62.42 38.7667 62.3634 39.0933 62.3634 39.44C62.3634 39.8 62.42 40.1367 62.5334 40.45C62.6467 40.7567 62.8067 41.0267 63.0134 41.26C63.22 41.4867 63.47 41.6667 63.7634 41.8C64.0567 41.9267 64.3834 41.99 64.7434 41.99C65.1034 41.99 65.43 41.9267 65.7234 41.8C66.0167 41.6667 66.2667 41.4867 66.4734 41.26C66.6867 41.0267 66.85 40.7567 66.9634 40.45C67.0767 40.1367 67.1334 39.8 67.1334 39.44ZM72.9392 43H71.6292V37.05H69.4792V35.92H75.0892V37.05H72.9392V43ZM76.9607 43H75.5307L78.5307 35.92H79.8107L82.7907 43H81.3307L80.6907 41.42H77.5807L76.9607 43ZM77.9807 40.34H80.3007L79.1407 37.38L77.9807 40.34ZM85.2287 41.87H88.7187V43H83.9487V35.92H88.5687V37.05H85.2287V38.82H88.3687V39.89H85.2287V41.87ZM94.1845 40.99H94.2145L96.0845 35.92H98.0045V43H96.7145L96.7345 37.54H96.7145L94.5845 43H93.7145L91.6145 37.54H91.5845L91.6145 43H90.3545V35.92H92.2545L94.1845 40.99ZM109.021 35.92V43H107.721V37.05H104.691V43H103.381V35.92H109.021ZM118.277 39.44C118.277 39.9933 118.18 40.5 117.987 40.96C117.8 41.42 117.537 41.8167 117.197 42.15C116.863 42.4767 116.463 42.7333 115.997 42.92C115.537 43.1 115.033 43.19 114.487 43.19C113.947 43.19 113.443 43.1 112.977 42.92C112.517 42.7333 112.117 42.4767 111.777 42.15C111.437 41.8167 111.17 41.42 110.977 40.96C110.79 40.5 110.697 39.9933 110.697 39.44C110.697 38.8867 110.79 38.3833 110.977 37.93C111.17 37.47 111.437 37.08 111.777 36.76C112.117 36.4333 112.517 36.18 112.977 36C113.443 35.82 113.947 35.73 114.487 35.73C115.033 35.73 115.537 35.82 115.997 36C116.463 36.18 116.863 36.4333 117.197 36.76C117.537 37.08 117.8 37.47 117.987 37.93C118.18 38.3833 118.277 38.8867 118.277 39.44ZM116.877 39.44C116.877 39.0933 116.82 38.7667 116.707 38.46C116.593 38.1467 116.433 37.8767 116.227 37.65C116.02 37.4233 115.767 37.2433 115.467 37.11C115.173 36.9767 114.847 36.91 114.487 36.91C114.127 36.91 113.8 36.9767 113.507 37.11C113.213 37.2433 112.963 37.4233 112.757 37.65C112.55 37.8767 112.39 38.1467 112.277 38.46C112.163 38.7667 112.107 39.0933 112.107 39.44C112.107 39.8 112.163 40.1367 112.277 40.45C112.39 40.7567 112.55 41.0267 112.757 41.26C112.963 41.4867 113.213 41.6667 113.507 41.8C113.8 41.9267 114.127 41.99 114.487 41.99C114.847 41.99 115.173 41.9267 115.467 41.8C115.76 41.6667 116.01 41.4867 116.217 41.26C116.43 41.0267 116.593 40.7567 116.707 40.45C116.82 40.1367 116.877 39.8 116.877 39.44ZM123.312 35.92H125.852C126.125 35.92 126.402 35.95 126.682 36.01C126.962 36.0633 127.215 36.16 127.442 36.3C127.668 36.4333 127.852 36.6167 127.992 36.85C128.138 37.0833 128.212 37.38 128.212 37.74C128.212 38.12 128.102 38.4433 127.882 38.71C127.662 38.9767 127.372 39.16 127.012 39.26V39.28C127.225 39.3133 127.422 39.3767 127.602 39.47C127.788 39.5567 127.948 39.6733 128.082 39.82C128.222 39.96 128.328 40.13 128.402 40.33C128.482 40.5233 128.522 40.74 128.522 40.98C128.522 41.3333 128.452 41.6367 128.312 41.89C128.172 42.1433 127.978 42.3533 127.732 42.52C127.492 42.68 127.208 42.8 126.882 42.88C126.562 42.96 126.218 43 125.852 43H123.312V35.92ZM124.592 38.85H125.722C125.888 38.85 126.045 38.8333 126.192 38.8C126.338 38.76 126.465 38.7033 126.572 38.63C126.685 38.55 126.772 38.45 126.832 38.33C126.898 38.21 126.932 38.0633 126.932 37.89C126.932 37.57 126.808 37.34 126.562 37.2C126.322 37.0533 126.002 36.98 125.602 36.98H124.592V38.85ZM124.592 41.92H125.702C125.888 41.92 126.072 41.9033 126.252 41.87C126.432 41.8367 126.592 41.78 126.732 41.7C126.872 41.62 126.985 41.5133 127.072 41.38C127.158 41.24 127.202 41.07 127.202 40.87C127.202 40.5033 127.072 40.24 126.812 40.08C126.558 39.92 126.205 39.84 125.752 39.84H124.592V41.92ZM136.375 41.96C136.095 42.32 135.725 42.6167 135.265 42.85C134.811 43.0767 134.278 43.19 133.665 43.19C133.125 43.19 132.621 43.1 132.155 42.92C131.695 42.7333 131.298 42.4767 130.965 42.15C130.631 41.8167 130.368 41.4233 130.175 40.97C129.988 40.51 129.895 40.0033 129.895 39.45C129.895 38.8967 129.991 38.3933 130.185 37.94C130.378 37.48 130.645 37.0867 130.985 36.76C131.325 36.4333 131.725 36.18 132.185 36C132.645 35.82 133.141 35.73 133.675 35.73C133.928 35.73 134.178 35.7533 134.425 35.8C134.678 35.8467 134.918 35.9167 135.145 36.01C135.371 36.1033 135.581 36.2167 135.775 36.35C135.968 36.4833 136.135 36.6367 136.275 36.81L135.345 37.68C135.185 37.4533 134.958 37.27 134.665 37.13C134.378 36.99 134.061 36.92 133.715 36.92C133.355 36.92 133.025 36.9867 132.725 37.12C132.431 37.2467 132.178 37.4267 131.965 37.66C131.758 37.8867 131.598 38.1533 131.485 38.46C131.371 38.7667 131.315 39.0967 131.315 39.45C131.315 39.81 131.371 40.1467 131.485 40.46C131.598 40.7667 131.758 41.0333 131.965 41.26C132.178 41.4867 132.431 41.6667 132.725 41.8C133.018 41.9267 133.345 41.99 133.705 41.99C134.065 41.99 134.395 41.9167 134.695 41.77C134.995 41.6233 135.241 41.4133 135.435 41.14L136.375 41.96ZM138.985 41.87H142.475V43H137.705V35.92H142.325V37.05H138.985V38.82H142.125V39.89H138.985V41.87ZM148.791 35.92H150.371V43H149.061V37.79H149.041L145.681 43H144.111V35.92H145.421V41.1H145.441L148.791 35.92ZM146.081 33.84C146.175 34.06 146.328 34.2433 146.541 34.39C146.755 34.53 146.988 34.6 147.241 34.6C147.501 34.6 147.735 34.53 147.941 34.39C148.155 34.2433 148.308 34.06 148.401 33.84L149.141 34.22C149.081 34.3733 148.991 34.52 148.871 34.66C148.758 34.8 148.618 34.9233 148.451 35.03C148.285 35.13 148.098 35.21 147.891 35.27C147.691 35.33 147.475 35.36 147.241 35.36C147.008 35.36 146.788 35.33 146.581 35.27C146.381 35.21 146.198 35.13 146.031 35.03C145.865 34.9233 145.721 34.8 145.601 34.66C145.488 34.52 145.401 34.3733 145.341 34.22L146.081 33.84ZM155.751 35.92H158.111C158.491 35.92 158.841 35.96 159.161 36.04C159.481 36.1133 159.758 36.2333 159.991 36.4C160.224 36.56 160.404 36.7733 160.531 37.04C160.664 37.3 160.731 37.6133 160.731 37.98C160.731 38.3533 160.661 38.6733 160.521 38.94C160.388 39.2067 160.201 39.4267 159.961 39.6C159.721 39.7667 159.438 39.89 159.111 39.97C158.791 40.0433 158.448 40.08 158.081 40.08H157.071V43H155.751V35.92ZM157.071 39.02H157.991C158.404 39.02 158.744 38.9433 159.011 38.79C159.284 38.63 159.421 38.3633 159.421 37.99C159.421 37.8033 159.384 37.6467 159.311 37.52C159.238 37.3867 159.138 37.2833 159.011 37.21C158.891 37.1367 158.744 37.0833 158.571 37.05C158.398 37.0167 158.211 37 158.011 37H157.071V39.02ZM169.543 39.44C169.543 39.9933 169.446 40.5 169.253 40.96C169.066 41.42 168.803 41.8167 168.463 42.15C168.13 42.4767 167.73 42.7333 167.263 42.92C166.803 43.1 166.3 43.19 165.753 43.19C165.213 43.19 164.71 43.1 164.243 42.92C163.783 42.7333 163.383 42.4767 163.043 42.15C162.703 41.8167 162.436 41.42 162.243 40.96C162.056 40.5 161.963 39.9933 161.963 39.44C161.963 38.8867 162.056 38.3833 162.243 37.93C162.436 37.47 162.703 37.08 163.043 36.76C163.383 36.4333 163.783 36.18 164.243 36C164.71 35.82 165.213 35.73 165.753 35.73C166.3 35.73 166.803 35.82 167.263 36C167.73 36.18 168.13 36.4333 168.463 36.76C168.803 37.08 169.066 37.47 169.253 37.93C169.446 38.3833 169.543 38.8867 169.543 39.44ZM168.143 39.44C168.143 39.0933 168.086 38.7667 167.973 38.46C167.86 38.1467 167.7 37.8767 167.493 37.65C167.286 37.4233 167.033 37.2433 166.733 37.11C166.44 36.9767 166.113 36.91 165.753 36.91C165.393 36.91 165.066 36.9767 164.773 37.11C164.48 37.2433 164.23 37.4233 164.023 37.65C163.816 37.8767 163.656 38.1467 163.543 38.46C163.43 38.7667 163.373 39.0933 163.373 39.44C163.373 39.8 163.43 40.1367 163.543 40.45C163.656 40.7567 163.816 41.0267 164.023 41.26C164.23 41.4867 164.48 41.6667 164.773 41.8C165.066 41.9267 165.393 41.99 165.753 41.99C166.113 41.99 166.44 41.9267 166.733 41.8C167.026 41.6667 167.276 41.4867 167.483 41.26C167.696 41.0267 167.86 40.7567 167.973 40.45C168.086 40.1367 168.143 39.8 168.143 39.44ZM177.349 41.96C177.069 42.32 176.699 42.6167 176.239 42.85C175.786 43.0767 175.252 43.19 174.639 43.19C174.099 43.19 173.596 43.1 173.129 42.92C172.669 42.7333 172.272 42.4767 171.939 42.15C171.606 41.8167 171.342 41.4233 171.149 40.97C170.962 40.51 170.869 40.0033 170.869 39.45C170.869 38.8967 170.966 38.3933 171.159 37.94C171.352 37.48 171.619 37.0867 171.959 36.76C172.299 36.4333 172.699 36.18 173.159 36C173.619 35.82 174.116 35.73 174.649 35.73C174.902 35.73 175.152 35.7533 175.399 35.8C175.652 35.8467 175.892 35.9167 176.119 36.01C176.346 36.1033 176.556 36.2167 176.749 36.35C176.942 36.4833 177.109 36.6367 177.249 36.81L176.319 37.68C176.159 37.4533 175.932 37.27 175.639 37.13C175.352 36.99 175.036 36.92 174.689 36.92C174.329 36.92 173.999 36.9867 173.699 37.12C173.406 37.2467 173.152 37.4267 172.939 37.66C172.732 37.8867 172.572 38.1533 172.459 38.46C172.346 38.7667 172.289 39.0967 172.289 39.45C172.289 39.81 172.346 40.1467 172.459 40.46C172.572 40.7667 172.732 41.0333 172.939 41.26C173.152 41.4867 173.406 41.6667 173.699 41.8C173.992 41.9267 174.319 41.99 174.679 41.99C175.039 41.99 175.369 41.9167 175.669 41.77C175.969 41.6233 176.216 41.4133 176.409 41.14L177.349 41.96ZM184.81 41.96C184.53 42.32 184.16 42.6167 183.7 42.85C183.246 43.0767 182.713 43.19 182.1 43.19C181.56 43.19 181.056 43.1 180.59 42.92C180.13 42.7333 179.733 42.4767 179.4 42.15C179.066 41.8167 178.803 41.4233 178.61 40.97C178.423 40.51 178.33 40.0033 178.33 39.45C178.33 38.8967 178.426 38.3933 178.62 37.94C178.813 37.48 179.08 37.0867 179.42 36.76C179.76 36.4333 180.16 36.18 180.62 36C181.08 35.82 181.576 35.73 182.11 35.73C182.363 35.73 182.613 35.7533 182.86 35.8C183.113 35.8467 183.353 35.9167 183.58 36.01C183.806 36.1033 184.016 36.2167 184.21 36.35C184.403 36.4833 184.57 36.6367 184.71 36.81L183.78 37.68C183.62 37.4533 183.393 37.27 183.1 37.13C182.813 36.99 182.496 36.92 182.15 36.92C181.79 36.92 181.46 36.9867 181.16 37.12C180.866 37.2467 180.613 37.4267 180.4 37.66C180.193 37.8867 180.033 38.1533 179.92 38.46C179.806 38.7667 179.75 39.0967 179.75 39.45C179.75 39.81 179.806 40.1467 179.92 40.46C180.033 40.7667 180.193 41.0333 180.4 41.26C180.613 41.4867 180.866 41.6667 181.16 41.8C181.453 41.9267 181.78 41.99 182.14 41.99C182.5 41.99 182.83 41.9167 183.13 41.77C183.43 41.6233 183.676 41.4133 183.87 41.14L184.81 41.96ZM187.48 41.16L190.89 35.92H192.41V43H191.1V37.77H191.07L187.66 43H186.14V35.92H187.45V41.16H187.48ZM195.771 41.16L199.181 35.92H200.701V43H199.391V37.77H199.361L195.951 43H194.431V35.92H195.741V41.16H195.771Z" fill="#152051"/>
</svg>
