<svg width="147" height="40" viewBox="0 0 147 40" fill="none" xmlns="http://www.w3.org/2000/svg">
<path fill-rule="evenodd" clip-rule="evenodd" d="M28.2098 8.52382C29.796 8.595 31.3962 9.38957 32.3065 11.2131C33.2225 13.0483 32.8803 14.8122 31.647 16.3764C30.5775 17.7324 29.4085 19.0122 28.2624 20.3075C27.7765 20.8566 27.1027 20.8998 26.6508 20.4723C26.2139 20.0592 26.2289 19.452 26.6913 18.9169C27.7759 17.6612 28.8916 16.4304 29.9383 15.1444C31.0185 13.8172 30.9056 12.26 29.7352 11.2806C28.5678 10.3035 26.6644 10.3947 25.4089 11.5156C23.993 12.7798 22.6865 14.1522 21.4261 15.568C21.2553 15.7599 21.096 15.9662 20.9025 16.133C20.4511 16.5217 19.9489 16.5463 19.499 16.1642C19.045 15.779 18.9552 15.2339 19.336 14.7905C20.9954 12.8576 22.6795 10.9376 24.7346 9.39824C25.6116 8.74138 26.677 8.50285 28.2098 8.52382Z" fill="#30953D"/>
<path fill-rule="evenodd" clip-rule="evenodd" d="M29.2458 6.68404C29.242 7.4905 28.4067 7.97929 27.6952 7.5804C27.5363 7.49119 27.3966 7.35599 27.2723 7.22037C23.0322 2.59218 16.6714 3.9628 13.5672 6.77072C12.2662 7.94756 11.2503 9.32921 10.5352 10.9267C10.1868 11.7052 9.61069 11.994 8.99734 11.71C8.41547 11.4404 8.26926 10.8463 8.59639 10.0809C10.7298 5.08943 15.5553 1.94093 20.9141 2.11976C24.0746 2.22532 26.7127 3.52098 28.848 5.82416C29.1949 6.19845 29.2474 6.34107 29.2458 6.68404Z" fill="#2C4497"/>
<path fill-rule="evenodd" clip-rule="evenodd" d="M11.5097 12.2926C12.6482 12.2927 13.6832 12.6203 14.5982 13.2898C16.0539 14.3547 17.4349 15.5107 18.7685 16.7215C19.325 17.2268 19.404 17.8559 18.9901 18.3142C18.5787 18.7698 17.9216 18.7694 17.3656 18.2813C16.1001 17.1702 14.8284 16.0679 13.4694 15.0676C13.0072 14.7272 12.5076 14.4874 11.9386 14.414C10.7223 14.2571 9.7075 14.7046 9.28765 15.5661C8.79058 16.5866 9.02528 18.0769 9.87305 18.8645C10.8491 19.7711 11.8693 20.6312 12.8722 21.5097C13.5149 22.0727 13.6329 22.6865 13.2158 23.1968C12.8526 23.6414 12.0248 23.6506 11.4757 23.1099C10.5448 22.1931 9.49044 21.4005 8.53938 20.5021C7.02492 19.0718 6.59913 17.2953 7.12935 15.3271C7.64249 13.4227 9.34691 12.2878 11.5097 12.2926Z" fill="#30953D"/>
<path fill-rule="evenodd" clip-rule="evenodd" d="M18.268 22.7856C17.3055 22.7408 16.4497 22.446 15.7283 21.8395C14.9581 21.1919 14.2042 20.5238 13.4655 19.841C12.9613 19.375 12.9298 18.7237 13.3426 18.2914C13.754 17.8608 14.3999 17.8692 14.9118 18.3202C15.5792 18.9084 16.2249 19.5219 16.9099 20.0889C17.8287 20.8491 18.6256 20.8857 19.6097 20.2178C19.9546 19.9837 20.264 19.6859 20.5499 19.3807C22.5813 17.2127 24.602 15.035 26.6278 12.8618C26.8027 12.6742 26.9676 12.4672 27.1749 12.322C27.6332 12.0006 28.1199 12.0134 28.5254 12.399C28.9302 12.7838 28.9532 13.2551 28.665 13.7344C28.6411 13.7742 28.614 13.813 28.5823 13.8467C26.1997 16.3903 23.8385 18.954 21.4214 21.4649C20.5866 22.3321 19.4776 22.7439 18.268 22.7856Z" fill="#2C4497"/>
<path fill-rule="evenodd" clip-rule="evenodd" d="M19.0993 27.1073C16.8807 27.1355 15.4388 26.1915 14.0954 25.0679C13.6405 24.6876 13.6544 24.1584 14.0027 23.6836C14.3312 23.2358 14.9477 23.1684 15.4514 23.5033C15.8406 23.7619 16.2101 24.0506 16.6059 24.2982C18.3819 25.4099 20.4167 25.2147 21.9657 23.7853C22.7573 23.055 23.5032 22.2807 24.1971 21.4573C24.6818 20.8821 25.3049 20.7616 25.7926 21.1324C26.3225 21.5349 26.3755 22.1781 25.8321 22.7782C24.5206 24.2261 23.3331 25.8206 21.4227 26.5974C20.5615 26.9476 19.6652 27.0824 19.0993 27.1073Z" fill="#30953D"/>
<path fill-rule="evenodd" clip-rule="evenodd" d="M19.6915 31.8035C21.5178 31.8293 23.0496 32.1916 24.3958 33.1501C24.6612 33.3389 24.9163 33.5516 25.1389 33.7879C25.547 34.2212 25.5565 34.845 25.1931 35.2393C24.8007 35.6655 24.1278 35.7245 23.6838 35.2713C21.9362 33.4876 17.9738 33.4375 16.1263 35.2592C15.669 35.7101 15.0106 35.6744 14.6165 35.2557C14.2258 34.841 14.252 34.2125 14.6791 33.7475C15.728 32.6057 17.8695 31.806 19.6915 31.8035Z" fill="#2C4497"/>
<path fill-rule="evenodd" clip-rule="evenodd" d="M22.4906 31.0337C22.004 30.9803 21.6595 30.7827 21.5013 30.3842C21.3367 29.9698 21.3785 29.5494 21.734 29.2313C21.9941 28.9987 22.2864 28.8011 22.5672 28.5915C24.7019 26.999 26.4746 25.05 28.1599 23.015C28.2342 22.9254 28.3003 22.8289 28.3758 22.7404C28.8441 22.1919 29.4238 22.0792 29.9152 22.4389C30.4351 22.8199 30.5071 23.4494 30.0365 24.0345C28.0565 26.4962 25.9203 28.8053 23.3208 30.6507C23.1882 30.7451 23.053 30.8416 22.9055 30.9081C22.7596 30.9739 22.5964 31.0029 22.4906 31.0337Z" fill="#2C4497"/>
<path fill-rule="evenodd" clip-rule="evenodd" d="M26.9382 33.4739C26.4972 33.4606 26.1592 33.2624 25.9966 32.8597C25.8284 32.4428 25.8559 32.0099 26.222 31.7047C28.6216 29.7029 30.2381 27.1172 31.7713 24.465C32.1126 23.875 32.7444 23.6919 33.2663 23.9838C33.771 24.2661 33.9523 24.8683 33.6311 25.4428C32.1237 28.1376 30.453 30.7175 28.1433 32.8277C27.8004 33.141 27.4625 33.4836 26.9382 33.4739Z" fill="#2C4497"/>
<path fill-rule="evenodd" clip-rule="evenodd" d="M17.154 13.6229C16.5221 13.6261 16.1757 13.4411 15.9958 13.0485C15.795 12.6112 15.8717 12.2005 16.2058 11.8263C17.4527 10.4292 18.7992 9.13998 20.3138 8.02816C21.2183 7.36419 22.1531 6.74493 23.1296 6.19057C23.7954 5.81265 24.4136 5.9189 24.7408 6.44014C25.0826 6.98443 24.8779 7.60774 24.1954 8.00019C21.8229 9.36396 19.7109 11.0413 17.9047 13.0908C17.6522 13.3772 17.3828 13.6302 17.154 13.6229Z" fill="#2C4497"/>
<path fill-rule="evenodd" clip-rule="evenodd" d="M8.12925 22.3571C8.34843 22.3434 8.60457 22.5315 8.84139 22.775C10.4466 24.425 12.2584 25.8254 14.1741 27.1004C14.8556 27.554 15.0418 28.1382 14.6899 28.6809C14.3389 29.2222 13.706 29.2969 13.0271 28.8552C10.9589 27.5101 9.03277 25.9914 7.31424 24.2224C6.96197 23.8597 6.78556 23.4536 7.03267 22.9592C7.22758 22.5697 7.54273 22.3644 8.12925 22.3571Z" fill="#2C4497"/>
<path fill-rule="evenodd" clip-rule="evenodd" d="M14.2478 32.5462C14.2327 33.3662 13.4638 33.9158 12.8121 33.578C10.9279 32.6016 9.39267 31.2294 8.34169 29.3777C8.05111 28.8655 8.26111 28.2622 8.73798 27.9903C9.23871 27.7051 9.83272 27.8106 10.1503 28.3384C11.014 29.7739 12.2287 30.8323 13.6535 31.6813C14.0227 31.9014 14.2287 32.2127 14.2478 32.5462Z" fill="#2C4497"/>
<path fill-rule="evenodd" clip-rule="evenodd" d="M17.5559 7.98163C17.5486 8.29971 17.4454 8.58562 17.1825 8.7734C16.2777 9.41908 15.5785 10.2658 14.8438 11.0792C14.2571 11.729 13.6456 11.8468 13.1422 11.4211C12.6254 10.984 12.6779 10.354 13.2863 9.66166C14.0723 8.7674 14.8509 7.86573 15.8292 7.16441C16.2033 6.8961 16.6154 6.85136 17.0227 7.06345C17.3824 7.25067 17.5535 7.57589 17.5559 7.98163Z" fill="#2C4497"/>
<path fill-rule="evenodd" clip-rule="evenodd" d="M33.9026 18.4101C33.8809 18.4938 33.8677 18.6636 33.7951 18.8029C33.32 19.7126 32.8222 20.6119 32.1338 21.3842C31.6862 21.8866 31.1077 21.9319 30.6348 21.546C30.1934 21.1855 30.1023 20.598 30.4804 20.1112C31.0274 19.4072 31.4759 18.6475 31.9076 17.8739C32.1834 17.3795 32.6257 17.2037 33.1611 17.3472C33.6446 17.4769 33.8864 17.8315 33.9026 18.4101Z" fill="#2C4497"/>
<path fill-rule="evenodd" clip-rule="evenodd" d="M20.1943 37.2637C19.7056 37.2245 19.2087 37.2544 18.7396 37.07C18.1549 36.84 17.887 36.3712 18.0476 35.8039C18.2127 35.2203 18.6363 34.9739 19.2217 35.066C19.8782 35.1694 20.5216 35.1541 21.1783 35.063C21.7644 34.9819 22.1907 35.2505 22.3186 35.8437C22.4428 36.4193 22.2094 36.8379 21.648 37.0607C21.18 37.2465 20.6833 37.2233 20.1943 37.2637Z" fill="#2C4497"/>
<path fill-rule="evenodd" clip-rule="evenodd" d="M17.8782 31.0793C17.229 31.0093 16.5345 30.7778 15.9553 30.3374C15.5089 29.9983 15.3833 29.4823 15.7043 28.9742C16.0234 28.4694 16.5242 28.3485 17.0519 28.5875C17.4582 28.7716 17.8655 28.9269 18.2951 29.0445C18.9056 29.212 19.1904 29.6684 19.0849 30.2464C18.9871 30.7816 18.5719 31.0913 17.8782 31.0793Z" fill="#2C4497"/>
<path fill-rule="evenodd" clip-rule="evenodd" d="M18.9199 7.33054C18.3493 7.33473 17.8604 6.8848 17.8469 6.34315C17.8303 5.69119 18.6676 4.93717 19.4211 4.92543C20.0057 4.91619 20.5054 5.39045 20.5238 5.97153C20.5445 6.62292 19.7164 7.32453 18.9199 7.33054Z" fill="#2C4497"/>
<path fill-rule="evenodd" clip-rule="evenodd" d="M11.4334 15.6083C12.0854 15.6099 12.8968 16.4148 12.897 17.0603C12.8972 17.6603 12.4252 18.1119 11.8168 18.0937C11.16 18.074 10.3674 17.2488 10.3878 16.6059C10.406 16.0324 10.8519 15.6068 11.4334 15.6083Z" fill="#2C4497"/>
<path d="M8.04742 7.86765e-05L-4.18694e-05 7.90667e-05L-4.1482e-05 7.97266L2.11647 7.97266L2.11647 2.09689L8.04742 2.09689L8.04742 7.86765e-05Z" fill="#30953D"/>
<path d="M40.3716 7.97266L40.3716 8.05838e-05L32.3243 8.09745e-05L32.3243 2.09689L38.2551 2.09689L38.2551 7.97266L40.3716 7.97266Z" fill="#30953D"/>
<path d="M8.04742 40L-4.1482e-05 40L-4.17362e-05 32.0274L2.11647 32.0274L2.11647 37.9032L8.04742 37.9032L8.04742 40Z" fill="#30953D"/>
<path d="M40.3716 32.0274L40.3716 40L32.3243 40L32.3243 37.9032L38.2551 37.9032L38.2551 32.0274L40.3716 32.0274Z" fill="#30953D"/>
<path d="M54.9052 14.1908L55.3501 14.1908C56.0438 14.1908 56.542 14.0773 56.8442 13.8498C57.1463 13.6226 57.2975 13.2872 57.2975 12.8437C57.2975 12.4002 57.1366 12.0732 56.8148 11.8624C56.4929 11.6517 55.9992 11.5463 55.3333 11.5463L54.9052 11.5463L54.9052 14.1908ZM60.6465 12.7771C60.6465 14.0522 60.2059 15.0294 59.3245 15.7084C58.4432 16.3874 57.1716 16.7271 55.5095 16.7271L51.5729 16.7271L51.5729 4.56967L59.6477 4.56967L59.6477 7.2056L54.9052 7.2056L54.9052 9.05999L55.3836 9.05999C57.1015 9.05999 58.4082 9.36912 59.3035 9.98724C60.1988 10.6055 60.6465 11.5353 60.6465 12.7771Z" fill="#2C4497"/>
<path d="M65.7315 10.6314C65.7315 12.982 66.5568 14.1573 68.2076 14.1573C69.0469 14.1573 69.6694 13.8718 70.0752 13.3008C70.4809 12.7298 70.6837 11.84 70.6837 10.6314C70.6837 9.4174 70.4781 8.52076 70.0669 7.94136C69.6555 7.36211 69.0413 7.07241 68.2244 7.07241C66.5625 7.07241 65.7315 8.25875 65.7315 10.6314ZM74.1755 10.6314C74.1755 12.6771 73.669 14.2321 72.6563 15.2965C71.6434 16.3609 70.1606 16.8931 68.2076 16.8931C66.2826 16.8931 64.8067 16.3581 63.78 15.2883C62.753 14.2184 62.2397 12.6604 62.2397 10.6148C62.2397 8.59136 62.7503 7.04612 63.7715 5.97891C64.7927 4.91169 66.277 4.37817 68.2244 4.37817C70.1772 4.37817 71.6575 4.9075 72.6646 5.96632C73.6719 7.02529 74.1755 8.58033 74.1755 10.6314Z" fill="#2C4497"/>
<path d="M81.8565 7.08904C81.0674 7.08904 80.4518 7.40922 80.0098 8.04945C79.5677 8.6898 79.3468 9.57258 79.3468 10.698C79.3468 13.0375 80.2448 14.2072 82.0411 14.2072C82.5839 14.2072 83.1099 14.1324 83.6191 13.9827C84.1283 13.8331 84.6403 13.6528 85.1551 13.4421L85.1551 16.2196C84.1311 16.6685 82.9728 16.8931 81.6802 16.8931C79.8279 16.8931 78.408 16.3609 77.4204 15.2965C76.4326 14.2321 75.939 12.6937 75.939 10.6813C75.939 9.42298 76.178 8.31691 76.6566 7.36336C77.135 6.40996 77.8233 5.67677 78.7213 5.16392C79.6196 4.65121 80.6757 4.39479 81.8901 4.39479C83.2161 4.39479 84.4836 4.6803 85.6924 5.25131L84.6768 7.83748C84.2235 7.62677 83.7702 7.44948 83.3169 7.3052C82.8637 7.16105 82.3768 7.08904 81.8565 7.08904Z" fill="#2C4497"/>
<path d="M93.0118 7.08904C92.2227 7.08904 91.6071 7.40922 91.1651 8.04945C90.7229 8.6898 90.5019 9.57258 90.5019 10.698C90.5019 13.0375 91.4001 14.2072 93.1964 14.2072C93.739 14.2072 94.2651 14.1324 94.7743 13.9827C95.2835 13.8331 95.7955 13.6528 96.3104 13.4421L96.3104 16.2196C95.2863 16.6685 94.1281 16.8931 92.8355 16.8931C90.9832 16.8931 89.5633 16.3609 88.5757 15.2965C87.5879 14.2321 87.0942 12.6937 87.0942 10.6813C87.0942 9.42298 87.3333 8.31691 87.8117 7.36336C88.2903 6.40996 88.9786 5.67677 89.8766 5.16392C90.7749 4.65121 91.8309 4.39479 93.0452 4.39479C94.3714 4.39479 95.6389 4.6803 96.8477 5.25131L95.8321 7.83748C95.3788 7.62677 94.9255 7.44948 94.4722 7.3052C94.019 7.16105 93.5321 7.08904 93.0118 7.08904Z" fill="#2C4497"/>
<path d="M62.2986 35.9048L58.5467 35.9048L54.9037 29.7428L54.9037 35.9048L51.5714 35.9048L51.5714 23.7474L54.9037 23.7474L54.9037 29.6347L58.4123 23.7474L62.0551 23.7474L58.2696 29.5516L62.2986 35.9048Z" fill="#2C4497"/>
<path d="M66.5892 29.8096C66.5892 32.1604 67.4146 33.3355 69.0655 33.3355C69.9048 33.3355 70.5272 33.05 70.9329 32.479C71.3386 31.9081 71.5416 31.0184 71.5416 29.8096C71.5416 28.5955 71.3358 27.6988 70.9246 27.1196C70.5133 26.5403 69.8991 26.2506 69.0821 26.2506C67.4202 26.2506 66.5892 27.437 66.5892 29.8096ZM75.0334 29.8096C75.0334 31.8553 74.5268 33.4103 73.5142 34.4747C72.5011 35.5392 71.0183 36.0713 69.0655 36.0713C67.1404 36.0713 65.6644 35.5364 64.6377 34.4665C63.6109 33.3965 63.0974 31.8388 63.0974 29.793C63.0974 27.7696 63.608 26.2243 64.6292 25.1571C65.6505 24.0901 67.1349 23.5562 69.0821 23.5562C71.0351 23.5562 72.5153 24.0859 73.5225 25.1447C74.5297 26.2035 75.0334 27.7585 75.0334 29.8096Z" fill="#2C4497"/>
<path d="M87.7644 35.9048L84.4321 35.9048L84.4321 30.9486L80.5794 30.9486L80.5794 35.9048L77.247 35.9048L77.247 23.7474L80.5794 23.7474L80.5794 28.2543L84.4321 28.2543L84.4321 23.7474L87.7644 23.7474L87.7644 35.9048Z" fill="#2C4497"/>
<path d="M95.8317 35.9053L92.5161 35.9053L92.5161 26.4339L89.5196 26.4339L89.5196 23.7479L98.8198 23.7479L98.8198 26.4339L95.8317 26.4339L95.8317 35.9053Z" fill="#2C4497"/>
<path d="M103.89 29.1945L104.495 29.1945C104.993 29.1945 105.389 29.056 105.683 28.7787C105.976 28.5016 106.123 28.1191 106.123 27.6313C106.123 26.8108 105.664 26.4004 104.747 26.4004L103.89 26.4004L103.89 29.1945ZM109.481 27.6146C109.481 28.9729 109.076 30.022 108.268 30.7621C107.459 31.5022 106.311 31.8721 104.822 31.8721L103.89 31.8721L103.89 35.9053L100.575 35.9053L100.575 23.7479L104.822 23.7479C106.372 23.7479 107.536 24.0833 108.314 24.754C109.092 25.4248 109.481 26.3784 109.481 27.6146Z" fill="#2C4497"/>
<path d="M114.475 29.8096C114.475 32.1604 115.3 33.3355 116.951 33.3355C117.79 33.3355 118.413 33.05 118.819 32.479C119.224 31.9081 119.427 31.0184 119.427 29.8096C119.427 28.5955 119.221 27.6988 118.81 27.1196C118.399 26.5403 117.785 26.2506 116.968 26.2506C115.306 26.2506 114.475 27.437 114.475 29.8096ZM122.919 29.8096C122.919 31.8553 122.412 33.4103 121.399 34.4747C120.387 35.5392 118.904 36.0713 116.951 36.0713C115.026 36.0713 113.55 35.5364 112.523 34.4665C111.496 33.3965 110.983 31.8388 110.983 29.793C110.983 27.7696 111.494 26.2243 112.515 25.1571C113.536 24.0901 115.02 23.5562 116.968 23.5562C118.921 23.5562 120.401 24.0859 121.408 25.1447C122.415 26.2035 122.919 27.7585 122.919 29.8096Z" fill="#2C4497"/>
<path d="M135.585 35.9051L132.252 35.9051L132.252 26.4337L129.91 26.4337C129.782 27.8141 129.61 29.2192 129.394 30.6495C129.179 32.0798 128.973 33.0833 128.777 33.6598C128.581 34.2364 128.334 34.6951 128.035 35.0361C127.735 35.377 127.364 35.6348 126.922 35.8094C126.48 35.9841 125.946 36.0713 125.319 36.0713C124.843 36.0713 124.41 36.0103 124.018 35.8884L124.018 33.3522C124.354 33.463 124.628 33.5184 124.841 33.5184C125.132 33.5184 125.354 33.3979 125.508 33.1567C125.662 32.9155 125.803 32.5053 125.932 31.926C126.06 31.3468 126.24 30.2712 126.469 28.6997C126.699 27.1278 126.911 25.4773 127.107 23.7477L135.585 23.7477L135.585 35.9051Z" fill="#2C4497"/>
<path d="M141.569 33.385L141.72 33.385C143.019 33.385 143.668 32.9084 143.668 31.9548C143.668 31.0458 143.013 30.5911 141.703 30.5911L141.569 30.5911L141.569 33.385ZM147 31.8717C147 33.1689 146.554 34.1655 145.661 34.8612C144.769 35.5569 143.503 35.9048 141.863 35.9048L138.237 35.9048L138.237 23.7474L141.569 23.7474L141.569 28.0715L141.737 28.0715C143.449 28.0715 144.755 28.3915 145.652 29.0319C146.551 29.6722 147 30.6189 147 31.8717Z" fill="#2C4497"/>
</svg>
